<svg width="18" height="18" viewBox="0 0 18 18" fill="none" xmlns="http://www.w3.org/2000/svg">
<path fill-rule="evenodd" clip-rule="evenodd" d="M9 0C13.9707 0 18 4.0293 18 9C18 13.9707 13.9707 18 9 18C4.0293 18 0 13.9707 0 9C0 4.0293 4.0293 0 9 0ZM1.9845 10.629C2.29946 11.9811 2.99816 13.2136 3.99664 14.1782C4.99512 15.1428 6.25091 15.7986 7.6131 16.0668C7.4394 13.7043 6.6627 12.2868 5.6817 11.5029C4.7421 10.7514 3.4677 10.4607 1.9845 10.6281V10.629ZM12.3183 11.502C11.3373 12.2877 10.5606 13.7043 10.3869 16.0668C11.7492 15.7986 13.0051 15.1426 14.0036 14.1778C15.0021 13.213 15.7007 11.9804 16.0155 10.6281C14.5323 10.4607 13.2579 10.7514 12.3183 11.5029V11.502ZM9 1.8C7.32256 1.80022 5.69779 2.38592 4.40603 3.45604C3.11426 4.52616 2.23651 6.01359 1.9242 7.6617L1.8855 7.8849L3.8745 7.4871C4.3983 7.3827 4.896 7.1064 5.4522 6.7311L5.8815 6.4323C6.5988 5.9229 7.6617 5.4 9 5.4C10.2492 5.4 11.2581 5.8554 11.97 6.3306L12.5478 6.7311C13.0338 7.0596 13.4766 7.3116 13.9302 7.4403L14.1255 7.4871L16.1145 7.8849C15.8483 6.18923 14.9852 4.64439 13.6808 3.52875C12.3764 2.41312 10.7164 1.80004 9 1.8Z" fill="#64748B"/>
</svg>
