<svg width="18" height="18" viewBox="0 0 18 18" fill="none" xmlns="http://www.w3.org/2000/svg">
<path d="M17.9136 12.9969C17.9883 12.0753 17.9982 10.9503 18 9.6282C18 9.46159 17.9338 9.30181 17.816 9.184C17.6982 9.06618 17.5384 9 17.3718 9C17.2052 9 17.0454 9.06618 16.9276 9.184C16.8098 9.30181 16.7436 9.46159 16.7436 9.6282C16.7427 10.9575 16.7328 12.0204 16.6617 12.8952C16.5861 13.824 16.4439 14.4819 16.2054 14.9832L13.8357 12.8502C13.4133 12.4697 12.8743 12.2438 12.3068 12.2095C11.7393 12.1752 11.177 12.3344 10.7118 12.6612L10.4625 12.8376C10.14 13.0644 9.74768 13.1701 9.35483 13.1361C8.96197 13.102 8.59376 12.9303 8.3151 12.6513L4.7241 9.0603C4.37857 8.71493 3.9147 8.51377 3.42643 8.49757C2.93816 8.48136 2.46198 8.65131 2.0943 8.973L1.2564 9.7056V9C1.2564 7.0092 1.2564 5.5791 1.4031 4.491C1.5471 3.42 1.8207 2.7747 2.2977 2.2977C2.7747 1.8207 3.42 1.5471 4.4901 1.4031C5.4612 1.2726 6.7023 1.2582 8.3718 1.2564C8.53259 1.24779 8.68396 1.17785 8.79474 1.06098C8.90552 0.944119 8.96726 0.789224 8.96726 0.6282C8.96726 0.467176 8.90552 0.312282 8.79474 0.195416C8.68396 0.0785498 8.53259 0.00861018 8.3718 0C6.7257 0.0018 5.3748 0.018 4.3227 0.1593C3.114 0.3213 2.1591 0.6606 1.4103 1.4103C0.6606 2.1591 0.3213 3.114 0.1593 4.3227C4.02331e-08 5.5044 0 7.02 0 8.9523V9C0 9.441 8.40286e-08 9.8604 0.00180008 10.2564C0.00810008 11.8125 0.0413999 13.0653 0.2205 14.0724C0.4032 15.0984 0.7461 15.9246 1.4103 16.5888C2.1591 17.3385 3.114 17.6778 4.3227 17.8398C5.5044 18 7.02 18 8.9523 18H9.0477C10.9809 18 12.4947 18 13.6773 17.8407C14.8869 17.6787 15.8409 17.3394 16.5897 16.5897C16.8509 16.3286 17.0723 16.0306 17.2467 15.705C17.6472 14.9625 17.8272 14.067 17.9136 12.9969Z" fill="white"/>
<path fill-rule="evenodd" clip-rule="evenodd" d="M13.9484 8.1C12.0395 8.1 11.0846 8.1 10.4915 7.5069C9.89844 6.9138 9.89844 5.9589 9.89844 4.05C9.89844 2.1411 9.89844 1.1862 10.4915 0.5931C11.0846 -5.36442e-08 12.0395 0 13.9484 0C15.8573 0 16.8122 -5.36442e-08 17.4053 0.5931C17.9984 1.1862 17.9984 2.1411 17.9984 4.05C17.9984 5.9589 17.9984 6.9138 17.4053 7.5069C16.8122 8.1 15.8573 8.1 13.9484 8.1ZM12.6389 5.5944C11.9504 4.9914 11.2484 4.1868 11.2484 3.4182C11.2484 1.8225 12.7334 1.2267 13.9484 2.4597C15.1634 1.2267 16.6484 1.8225 16.6484 3.4182C16.6484 4.1868 15.9464 4.9905 15.2579 5.5944C14.7215 6.0651 14.4533 6.3 13.9484 6.3C13.4444 6.3 13.1753 6.0651 12.6389 5.5944Z" fill="white"/>
</svg>
