<svg width="22" height="14" viewBox="0 0 22 14" fill="none" xmlns="http://www.w3.org/2000/svg">
<path fill-rule="evenodd" clip-rule="evenodd" d="M6.6 6.6C5.72479 6.6 4.88542 6.25232 4.26655 5.63345C3.64768 5.01458 3.3 4.17521 3.3 3.3C3.3 2.42479 3.64768 1.58542 4.26655 0.966548C4.88542 0.347678 5.72479 0 6.6 0C7.47521 0 8.31458 0.347678 8.93345 0.966548C9.55232 1.58542 9.9 2.42479 9.9 3.3C9.9 4.17521 9.55232 5.01458 8.93345 5.63345C8.31458 6.25232 7.47521 6.6 6.6 6.6ZM15.4 6.6C14.5248 6.6 13.6854 6.25232 13.0665 5.63345C12.4477 5.01458 12.1 4.17521 12.1 3.3C12.1 2.42479 12.4477 1.58542 13.0665 0.966548C13.6854 0.347678 14.5248 0 15.4 0C16.2752 0 17.1146 0.347678 17.7335 0.966548C18.3523 1.58542 18.7 2.42479 18.7 3.3C18.7 4.17521 18.3523 5.01458 17.7335 5.63345C17.1146 6.25232 16.2752 6.6 15.4 6.6ZM6.6 8.8C7.84869 8.79852 9.08333 9.06346 10.2215 9.57714C11.3596 10.0908 12.3751 10.8414 13.2 11.7788V13.2H0V11.7788C0.824949 10.8414 1.8404 10.0908 2.97854 9.57714C4.11667 9.06346 5.35131 8.79852 6.6 8.8ZM15.4 13.2V10.9472L14.85 10.3235C14.4302 9.84743 13.9701 9.40838 13.475 9.0112C14.107 8.87044 14.7525 8.79962 15.4 8.8C16.6487 8.79852 17.8833 9.06346 19.0215 9.57714C20.1596 10.0908 21.1751 10.8414 22 11.7788V13.2H15.4Z" fill="#64748B"/>
</svg>
