<svg width="22" height="22" viewBox="0 0 22 22" fill="none" xmlns="http://www.w3.org/2000/svg">
<g id="Iconsax/Linear/calendarsearch">
<path id="Vector" d="M7.33301 1.83398V4.58398M14.6663 1.83398V4.58398" stroke="#64748B" stroke-width="1.5" stroke-miterlimit="10" stroke-linecap="round" stroke-linejoin="round"/>
<path id="Vector_2" d="M20.1667 20.1667L19.25 19.25M16.6833 19.6167C17.4613 19.6167 18.2074 19.3076 18.7575 18.7575C19.3076 18.2074 19.6167 17.4613 19.6167 16.6833C19.6167 15.9054 19.3076 15.1593 18.7575 14.6092C18.2074 14.059 17.4613 13.75 16.6833 13.75C15.9054 13.75 15.1593 14.059 14.6092 14.6092C14.059 15.1593 13.75 15.9054 13.75 16.6833C13.75 17.4613 14.059 18.2074 14.6092 18.7575C15.1593 19.3076 15.9054 19.6167 16.6833 19.6167Z" stroke="#64748B" stroke-width="1.5" stroke-linecap="round" stroke-linejoin="round"/>
<path id="Vector_3" d="M3.20833 8.33315H18.7917M12.2558 20.1673H7.33333C4.125 20.1673 2.75 18.334 2.75 15.584V7.79232C2.75 5.04232 4.125 3.20898 7.33333 3.20898H14.6667C17.875 3.20898 19.25 5.04232 19.25 7.79232V11.9173" stroke="#64748B" stroke-width="1.5" stroke-miterlimit="10" stroke-linecap="round" stroke-linejoin="round"/>
<path id="Vector_4" d="M10.9951 12.5586H11.0043M7.60254 12.5586H7.61171M7.60254 15.3086H7.61171" stroke="#64748B" stroke-width="2" stroke-linecap="round" stroke-linejoin="round"/>
</g>
</svg>
