<svg width="20" height="20" viewBox="0 0 20 20" fill="none" xmlns="http://www.w3.org/2000/svg">
<path id="Vector" d="M10 12.3077C9.77179 12.3077 9.54871 12.24 9.35896 12.1132C9.16921 11.9864 9.02132 11.8062 8.93399 11.5954C8.84666 11.3846 8.82381 11.1526 8.86833 10.9287C8.91285 10.7049 9.02274 10.4993 9.18411 10.338C9.34548 10.1766 9.55107 10.0667 9.7749 10.0222C9.99872 9.97765 10.2307 10.0005 10.4416 10.0878C10.6524 10.1752 10.8326 10.3231 10.9594 10.5128C11.0862 10.7026 11.1538 10.9256 11.1538 11.1538C11.1538 11.4599 11.0323 11.7533 10.8159 11.9697C10.5995 12.1861 10.306 12.3077 10 12.3077ZM20 10C20 11.9778 19.4135 13.9112 18.3147 15.5557C17.2159 17.2002 15.6541 18.4819 13.8268 19.2388C11.9996 19.9957 9.98891 20.1937 8.0491 19.8078C6.10929 19.422 4.32746 18.4696 2.92894 17.0711C1.53041 15.6725 0.578004 13.8907 0.192152 11.9509C-0.1937 10.0111 0.00433284 8.00042 0.761209 6.17316C1.51809 4.3459 2.79981 2.78412 4.4443 1.6853C6.08879 0.58649 8.02219 0 10 0C12.6513 0.00279983 15.1932 1.05727 17.068 2.93202C18.9427 4.80678 19.9972 7.34869 20 10ZM1.53847 10V10.0317C3.90109 8.02487 6.90009 6.92308 10 6.92308C13.0999 6.92308 16.0989 8.02487 18.4615 10.0317V10C18.4615 7.75586 17.5701 5.60363 15.9832 4.01679C14.3964 2.42994 12.2441 1.53846 10 1.53846C7.75586 1.53846 5.60364 2.42994 4.01679 4.01679C2.42995 5.60363 1.53847 7.75586 1.53847 10ZM8.02885 18.2288L6.38943 13.8462H2.46443C3.02199 14.934 3.80776 15.8887 4.76808 16.6451C5.72839 17.4015 6.84064 17.9417 8.02885 18.2288ZM10 18.4615H10.2394L12.1692 13.3106C12.28 13.0174 12.4772 12.7649 12.7348 12.5865C12.9924 12.4081 13.2982 12.3122 13.6115 12.3115H18.1423C18.1788 12.1856 18.2115 12.0577 18.2385 11.9269C17.1642 10.8309 15.882 9.96013 14.4671 9.3657C13.0521 8.77128 11.5328 8.4651 9.99808 8.4651C8.46334 8.4651 6.94402 8.77128 5.52907 9.3657C4.11412 9.96013 2.83198 10.8309 1.7577 11.9269C1.7875 12.0558 1.8202 12.1837 1.85385 12.3115H6.38943C6.70286 12.3124 7.00864 12.4085 7.26622 12.5871C7.5238 12.7656 7.72102 13.0183 7.83173 13.3115L9.75481 18.4615H10ZM17.5356 13.8462H13.6106L11.9673 18.2298C13.1563 17.9431 14.2694 17.403 15.2304 16.6464C16.1915 15.8898 16.9778 14.9346 17.5356 13.8462Z" fill="#64748B"/>
</svg>
