<svg width="22" height="22" viewBox="0 0 22 22" fill="none" xmlns="http://www.w3.org/2000/svg">
<g id="vuesax/linear/3square">
<g id="3square">
<path id="Vector" d="M10.9987 15.5833V17.765C10.9987 19.4792 10.3112 20.1667 8.58786 20.1667H4.2337C2.51953 20.1667 1.83203 19.4792 1.83203 17.765V13.4108C1.83203 11.6875 2.51953 11 4.2337 11H6.41536V13.1725C6.41536 14.8958 7.10286 15.5833 8.81703 15.5833H10.9987Z" stroke="#E73A5D" stroke-width="1.5" stroke-linecap="round" stroke-linejoin="round"/>
<path id="Vector_2" d="M15.5846 11.0003V13.1728C15.5846 14.8962 14.8971 15.5837 13.1738 15.5837H8.81964C7.10547 15.5837 6.41797 14.8962 6.41797 13.1728V8.81866C6.41797 7.10449 7.10547 6.41699 8.81964 6.41699H11.0013V8.58949C11.0013 10.3128 11.6888 11.0003 13.403 11.0003H15.5846Z" stroke="#E73A5D" stroke-width="1.5" stroke-linecap="round" stroke-linejoin="round"/>
<path id="Vector_3" d="M20.1667 4.23467V8.58884C20.1667 10.3122 19.4792 10.9997 17.7558 10.9997H13.4017C11.6875 10.9997 11 10.3122 11 8.58884V4.23467C11 2.52051 11.6875 1.83301 13.4017 1.83301H17.7558C19.4792 1.83301 20.1667 2.52051 20.1667 4.23467Z" stroke="#E73A5D" stroke-width="1.5" stroke-linecap="round" stroke-linejoin="round"/>
</g>
</g>
</svg>
