<svg width="22" height="22" viewBox="0 0 22 22" fill="none" xmlns="http://www.w3.org/2000/svg">
<g id="vuesax/linear/gallery">
<g id="gallery">
<path id="Vector" d="M8.24967 20.1673H13.7497C18.333 20.1673 20.1663 18.334 20.1663 13.7507V8.25065C20.1663 3.66732 18.333 1.83398 13.7497 1.83398H8.24967C3.66634 1.83398 1.83301 3.66732 1.83301 8.25065V13.7507C1.83301 18.334 3.66634 20.1673 8.24967 20.1673Z" stroke="#64748B" stroke-width="1.5" stroke-linecap="round" stroke-linejoin="round"/>
<path id="Vector_2" d="M8.25033 9.16667C9.26285 9.16667 10.0837 8.34586 10.0837 7.33333C10.0837 6.32081 9.26285 5.5 8.25033 5.5C7.2378 5.5 6.41699 6.32081 6.41699 7.33333C6.41699 8.34586 7.2378 9.16667 8.25033 9.16667Z" stroke="#64748B" stroke-width="1.5" stroke-linecap="round" stroke-linejoin="round"/>
<path id="Vector_3" d="M2.44727 17.3712L6.96643 14.337C7.6906 13.8512 8.7356 13.9062 9.38643 14.4653L9.68893 14.7312C10.4039 15.3453 11.5589 15.3453 12.2739 14.7312L16.0873 11.4587C16.8023 10.8445 17.9573 10.8445 18.6723 11.4587L20.1664 12.742" stroke="#64748B" stroke-width="1.5" stroke-linecap="round" stroke-linejoin="round"/>
</g>
</g>
</svg>
