<svg width="22" height="22" viewBox="0 0 22 22" fill="none" xmlns="http://www.w3.org/2000/svg">
<g id="vuesax/linear/profile-2user">
<g id="profile-2user">
<path id="Vector" d="M8.39635 9.96482C8.30469 9.95565 8.19469 9.95565 8.09385 9.96482C5.91219 9.89148 4.17969 8.10398 4.17969 5.90398C4.17969 3.65815 5.99469 1.83398 8.24969 1.83398C10.4955 1.83398 12.3197 3.65815 12.3197 5.90398C12.3105 8.10398 10.578 9.89148 8.39635 9.96482Z" stroke="#64748B" stroke-width="1.5" stroke-linecap="round" stroke-linejoin="round"/>
<path id="Vector_2" d="M15.042 3.66602C16.8204 3.66602 18.2504 5.10518 18.2504 6.87435C18.2504 8.60685 16.8754 10.0185 15.1612 10.0827C15.0879 10.0735 15.0054 10.0735 14.9229 10.0827" stroke="#64748B" stroke-width="1.5" stroke-linecap="round" stroke-linejoin="round"/>
<path id="Vector_3" d="M3.81316 13.346C1.59483 14.831 1.59483 17.251 3.81316 18.7268C6.334 20.4135 10.4682 20.4135 12.989 18.7268C15.2073 17.2418 15.2073 14.8218 12.989 13.346C10.4773 11.6685 6.34316 11.6685 3.81316 13.346Z" stroke="#64748B" stroke-width="1.5" stroke-linecap="round" stroke-linejoin="round"/>
<path id="Vector_4" d="M16.8115 18.334C17.4715 18.1965 18.0949 17.9307 18.6082 17.5365C20.0382 16.464 20.0382 14.6948 18.6082 13.6223C18.104 13.2373 17.4899 12.9807 16.839 12.834" stroke="#64748B" stroke-width="1.5" stroke-linecap="round" stroke-linejoin="round"/>
</g>
</g>
</svg>
