<svg width="50" height="22" viewBox="0 0 50 22" fill="none" xmlns="http://www.w3.org/2000/svg">
<g clip-path="url(#clip0_4312_19151)">
<path d="M9.13498 3.34474C8.5491 4.03802 7.61151 4.58503 6.67401 4.50682C6.55684 3.56942 7.01577 2.57324 7.55292 1.95797C8.1388 1.24516 9.16427 0.737301 9.99436 0.698242C10.092 1.6748 9.71119 2.63182 9.13508 3.34474H9.13498ZM9.9846 4.69244C8.62712 4.61433 7.46504 5.46385 6.82048 5.46385C6.16625 5.46385 5.17984 4.7315 4.10563 4.75103C2.7092 4.77056 1.41032 5.56149 0.697405 6.82132C-0.767477 9.34087 0.316587 13.0714 1.73255 15.1222C2.42593 16.1378 3.25602 17.2511 4.34975 17.212C5.38499 17.1729 5.7951 16.5382 7.04516 16.5382C8.30489 16.5382 8.66628 17.212 9.76001 17.1925C10.8928 17.1729 11.6057 16.177 12.2991 15.1612C13.09 14.0089 13.4124 12.8858 13.4319 12.8272C13.4124 12.8077 11.2444 11.9777 11.2249 9.47758C11.2054 7.38776 12.9339 6.39168 13.012 6.33309C12.0354 4.88774 10.512 4.7315 9.9846 4.69244ZM17.8265 1.86032V17.0852H20.1898V11.8801H23.4613C26.4495 11.8801 28.5492 9.8293 28.5492 6.86047C28.5492 3.89175 26.4886 1.86042 23.5394 1.86042H17.8264L17.8265 1.86032ZM20.1898 3.85259H22.9144C24.9652 3.85259 26.1371 4.94632 26.1371 6.87014C26.1371 8.79396 24.9652 9.89755 22.9046 9.89755H20.1898V3.85259ZM32.8656 17.2022C34.3501 17.2022 35.727 16.4504 36.352 15.2589H36.4008V17.0851H38.5884V9.50687C38.5884 7.30964 36.8305 5.89358 34.1254 5.89358C31.6156 5.89358 29.7601 7.32917 29.6918 9.30181H31.8207C31.9965 8.36432 32.8655 7.74905 34.057 7.74905C35.5024 7.74905 36.3129 8.4229 36.3129 9.6632V10.503L33.3636 10.6787C30.6195 10.8447 29.1352 11.9678 29.1352 13.921C29.1352 15.8937 30.6683 17.2022 32.8656 17.2022ZM33.5003 15.3956C32.2407 15.3956 31.4398 14.7902 31.4398 13.8624C31.4398 12.9054 32.2113 12.3488 33.686 12.2609L36.3129 12.0949V12.9542C36.3129 14.38 35.102 15.3956 33.5004 15.3956H33.5003ZM41.5083 21.2257C43.813 21.2257 44.897 20.3469 45.8442 17.6808L49.9947 6.04005H47.5923L44.8091 15.0342H44.7603L41.9771 6.04005H39.5063L43.5102 17.1241L43.2954 17.798C42.9341 18.9405 42.3481 19.38 41.3032 19.38C41.1177 19.38 40.7564 19.3605 40.6098 19.341V21.1671C40.7465 21.2062 41.3324 21.2257 41.5083 21.2257Z" fill="black"/>
</g>
<defs>
<clipPath id="clip0_4312_19151">
<rect width="50" height="20.6033" fill="white" transform="translate(0 0.698242)"/>
</clipPath>
</defs>
</svg>
