<svg width="30" height="26" viewBox="0 0 30 26" fill="none" xmlns="http://www.w3.org/2000/svg">
<g clip-path="url(#clip0_4312_19142)">
<path d="M26.9852 5.33607C24.0895 3.66451 20.3868 4.65774 18.7134 7.5535L14.4953 14.8605C13.2747 16.9706 14.8461 17.7079 16.5981 18.7584L20.657 21.101C22.0315 21.8939 23.7871 21.4232 24.5799 20.0505L28.9163 12.5411C30.3729 10.0177 29.5086 6.79283 26.9852 5.33607Z" fill="#EA4335"/>
<path d="M22.2155 8.36029L18.1567 6.01763C15.9161 4.77382 14.6472 4.69149 13.7273 6.15364L7.74097 16.5211C6.06941 19.4149 7.06437 23.1159 9.95829 24.7838C12.4817 26.2406 15.7067 25.3762 17.1635 22.8528L23.2644 12.2849C24.0607 10.9105 23.5901 9.15307 22.2155 8.36029Z" fill="#FBBC04"/>
<path d="M22.9942 3.03095L20.1432 1.38427C16.9899 -0.435682 12.9578 0.643446 11.1377 3.79677L5.70976 13.1977C4.90804 14.5847 5.38407 16.3601 6.77111 17.16L9.96377 19.0033C11.5404 19.9143 13.5555 19.3737 14.4665 17.7971L20.6676 7.05744C21.9525 4.83301 24.7963 4.07063 27.0208 5.3556L22.9942 3.03083V3.03095Z" fill="#34A853"/>
<path d="M11.9068 6.48641L8.825 4.71106C7.45057 3.92001 5.69495 4.38882 4.90218 5.7598L1.20458 12.1488C-0.61537 15.2932 0.463759 19.3162 3.61708 21.131L5.9633 22.4822L8.80894 24.1214L10.0438 24.8318C7.85149 23.3644 7.15527 20.424 8.49564 18.1082L9.45321 16.4545L12.9591 10.3966C13.7501 9.0293 13.2795 7.27735 11.9068 6.48629V6.48641Z" fill="#4285F4"/>
</g>
<defs>
<clipPath id="clip0_4312_19142">
<rect width="29.36" height="25" fill="white" transform="translate(0.320312 0.5)"/>
</clipPath>
</defs>
</svg>
