<svg width="48" height="16" viewBox="0 0 48 16" fill="none" xmlns="http://www.w3.org/2000/svg">
<g id="logos:visa" clip-path="url(#clip0_4312_19136)">
<path id="Vector" d="M24.7944 5.27608C24.768 7.35729 26.6491 8.51862 28.0662 9.20916C29.5221 9.91759 30.0111 10.3719 30.0053 11.0055C29.9945 11.9751 28.844 12.4031 27.7674 12.4197C25.8892 12.4488 24.7971 11.9126 23.9289 11.507L23.2522 14.6731C24.1233 15.0745 25.7363 15.4246 27.4089 15.4399C31.3351 15.4399 33.9037 13.5019 33.9176 10.497C33.933 6.68337 28.6427 6.47229 28.6788 4.76771C28.6913 4.25084 29.1845 3.69928 30.2652 3.55904C30.8001 3.48819 32.2768 3.43398 33.951 4.20494L34.6082 1.14169C33.7078 0.813856 32.5506 0.49994 31.1099 0.49994C27.4145 0.49994 24.8153 2.4644 24.7944 5.27608ZM40.9222 0.763796C40.2053 0.763796 39.6012 1.18199 39.3315 1.82374L33.7232 15.2149H37.6465L38.4272 13.0573H43.2214L43.6743 15.2149H47.1322L44.1147 0.763796H40.9222ZM41.4711 4.66759L42.6033 10.0942H39.5025L41.4711 4.66759ZM20.0375 0.763976L16.945 15.2148H20.6836L23.7747 0.763615H20.0375V0.763976ZM14.5069 0.763615L10.6156 10.5998L9.04146 2.23651C8.85677 1.30289 8.12737 0.763796 7.31737 0.763796H0.956284L0.867188 1.18343C2.17309 1.46681 3.65683 1.92386 4.55574 2.41289C5.10586 2.71163 5.26273 2.97277 5.44345 3.68265L8.42484 15.2149H12.3756L18.4327 0.763796H14.5069" fill="url(#paint0_linear_4312_19136)"/>
</g>
<defs>
<linearGradient id="paint0_linear_4312_19136" x1="22.1371" y1="15.7396" x2="22.5695" y2="0.396037" gradientUnits="userSpaceOnUse">
<stop stop-color="#222357"/>
<stop offset="1" stop-color="#254AA5"/>
</linearGradient>
<clipPath id="clip0_4312_19136">
<rect width="46.266" height="15" fill="white" transform="translate(0.867188 0.5)"/>
</clipPath>
</defs>
</svg>
