<svg width="22" height="23" viewBox="0 0 22 23" fill="none" xmlns="http://www.w3.org/2000/svg">
<path d="M16.2622 7.06917C16.0932 7.06917 15.9347 7.04296 15.7867 6.99055C15.6388 6.93814 15.5014 6.84811 15.3746 6.72046L13.5677 4.91355C13.3141 4.65994 13.1873 4.359 13.1873 4.01072C13.1873 3.66244 13.3141 3.37164 13.5677 3.13833C13.8002 2.88473 14.0961 2.75793 14.4553 2.75793C14.8146 2.75793 15.1105 2.87416 15.3429 3.10663L16.2622 4.02594L19.8444 0.412106C20.098 0.158504 20.3939 0.0317026 20.732 0.0317026C21.0701 0.0317026 21.3766 0.158504 21.6513 0.412106C21.8838 0.665708 22 0.972144 22 1.33141C22 1.69068 21.8838 1.98655 21.6513 2.21902L17.1499 6.72046C17.0231 6.84726 16.8857 6.93729 16.7378 6.99055C16.5898 7.04381 16.4313 7.07001 16.2622 7.06917ZM1.77522 22.0634C1.35255 22.2325 0.951008 22.1957 0.570605 21.9531C0.190201 21.7105 0 21.3563 0 20.8905V2.53603C0 1.83862 0.24853 1.24139 0.745591 0.744325C1.24265 0.247264 1.83946 -0.000843188 2.53602 2.15282e-06H10.1441V2.53603H2.53602V18.9568L8.87608 16.2305L15.2161 18.9568V10.1441H17.7522V20.8905C17.7522 21.3554 17.562 21.7096 17.1816 21.9531C16.8012 22.1965 16.3996 22.2333 15.9769 22.0634L8.87608 19.0202L1.77522 22.0634Z" fill="#64748B"/>
</svg>
