<svg width="21" height="21" viewBox="0 0 21 21" fill="none" xmlns="http://www.w3.org/2000/svg">
<path d="M18.8989 10.6604C18.7386 10.4779 18.6502 10.2433 18.6502 10.0004C18.6502 9.75747 18.7386 9.52287 18.8989 9.34038L20.1789 7.90038C20.32 7.74305 20.4076 7.54509 20.4291 7.33489C20.4507 7.12469 20.4051 6.91307 20.2989 6.73038L18.2989 3.27038C18.1938 3.0879 18.0338 2.94326 17.8417 2.85707C17.6495 2.77088 17.4351 2.74754 17.2289 2.79038L15.3489 3.17038C15.1097 3.21981 14.8607 3.17997 14.6488 3.05838C14.4369 2.93679 14.2769 2.74187 14.1989 2.51038L13.5889 0.680383C13.5218 0.481762 13.394 0.309248 13.2235 0.187225C13.0531 0.0652023 12.8486 -0.000157766 12.6389 0.000383396H8.63892C8.42085 -0.0109986 8.20505 0.0493098 8.02448 0.172097C7.84391 0.294885 7.7085 0.473403 7.63892 0.680383L7.07892 2.51038C7.00092 2.74187 6.84089 2.93679 6.62903 3.05838C6.41717 3.17997 6.16814 3.21981 5.92892 3.17038L3.99892 2.79038C3.80347 2.76276 3.60422 2.79361 3.42627 2.87902C3.24831 2.96444 3.09962 3.10061 2.99892 3.27038L0.99892 6.73038C0.89008 6.91103 0.841142 7.12147 0.859102 7.33161C0.877063 7.54174 0.961002 7.74082 1.09892 7.90038L2.36892 9.34038C2.52924 9.52287 2.61765 9.75747 2.61765 10.0004C2.61765 10.2433 2.52924 10.4779 2.36892 10.6604L1.09892 12.1004C0.961002 12.2599 0.877063 12.459 0.859102 12.6692C0.841142 12.8793 0.89008 13.0897 0.99892 13.2704L2.99892 16.7304C3.10402 16.9129 3.26404 17.0575 3.45617 17.1437C3.6483 17.2299 3.86274 17.2532 4.06892 17.2104L5.94892 16.8304C6.18814 16.781 6.43717 16.8208 6.64903 16.9424C6.86089 17.064 7.02092 17.2589 7.09892 17.4904L7.70892 19.3204C7.7785 19.5274 7.91392 19.7059 8.09449 19.8287C8.27506 19.9515 8.49085 20.0118 8.70892 20.0004H12.7089C12.9186 20.0009 13.1231 19.9356 13.2935 19.8135C13.464 19.6915 13.5918 19.519 13.6589 19.3204L14.2689 17.4904C14.3469 17.2589 14.5069 17.064 14.7188 16.9424C14.9307 16.8208 15.1797 16.781 15.4189 16.8304L17.2989 17.2104C17.5051 17.2532 17.7195 17.2299 17.9117 17.1437C18.1038 17.0575 18.2638 16.9129 18.3689 16.7304L20.3689 13.2704C20.4751 13.0877 20.5207 12.8761 20.4991 12.6659C20.4776 12.4557 20.39 12.2577 20.2489 12.1004L18.8989 10.6604ZM17.4089 12.0004L18.2089 12.9004L16.9289 15.1204L15.7489 14.8804C15.0287 14.7332 14.2795 14.8555 13.6435 15.2242C13.0075 15.5929 12.5291 16.1822 12.2989 16.8804L11.9189 18.0004H9.35892L8.99892 16.8604C8.76877 16.1622 8.2903 15.5729 7.65432 15.2042C7.01835 14.8355 6.26914 14.7132 5.54892 14.8604L4.36892 15.1004L3.06892 12.8904L3.86892 11.9904C4.36087 11.4404 4.63285 10.7283 4.63285 9.99038C4.63285 9.25245 4.36087 8.54041 3.86892 7.99038L3.06892 7.09038L4.34892 4.89038L5.52892 5.13038C6.24914 5.27761 6.99835 5.15526 7.63432 4.78658C8.2703 4.4179 8.74877 3.82854 8.97892 3.13038L9.35892 2.00038H11.9189L12.2989 3.14038C12.5291 3.83854 13.0075 4.4279 13.6435 4.79658C14.2795 5.16526 15.0287 5.28761 15.7489 5.14038L16.9289 4.90038L18.2089 7.12038L17.4089 8.02038C16.9225 8.56914 16.6539 9.27707 16.6539 10.0104C16.6539 10.7437 16.9225 11.4516 17.4089 12.0004ZM10.6389 6.00038C9.84779 6.00038 9.07444 6.23498 8.41664 6.67451C7.75884 7.11403 7.24615 7.73874 6.9434 8.46965C6.64065 9.20055 6.56144 10.0048 6.71578 10.7807C6.87012 11.5567 7.25108 12.2694 7.81049 12.8288C8.3699 13.3882 9.08263 13.7692 9.85856 13.9235C10.6345 14.0779 11.4387 13.9987 12.1697 13.6959C12.9006 13.3932 13.5253 12.8805 13.9648 12.2227C14.4043 11.5649 14.6389 10.7915 14.6389 10.0004C14.6389 8.93952 14.2175 7.9221 13.4673 7.17196C12.7172 6.42181 11.6998 6.00038 10.6389 6.00038ZM10.6389 12.0004C10.2434 12.0004 9.85668 11.8831 9.52778 11.6633C9.19888 11.4436 8.94254 11.1312 8.79116 10.7657C8.63979 10.4003 8.60018 9.99817 8.67735 9.6102C8.75452 9.22224 8.945 8.86588 9.22471 8.58617C9.50441 8.30647 9.86078 8.11598 10.2487 8.03881C10.6367 7.96164 11.0388 8.00125 11.4043 8.15262C11.7697 8.304 12.0821 8.56034 12.3019 8.88924C12.5216 9.21814 12.6389 9.60482 12.6389 10.0004C12.6389 10.5308 12.4282 11.0395 12.0531 11.4146C11.6781 11.7897 11.1694 12.0004 10.6389 12.0004Z" fill="#64748B"/>
</svg>
