<svg width="15" height="13" viewBox="0 0 15 13" fill="none" xmlns="http://www.w3.org/2000/svg">
<path d="M4.23828 1.26172H14.75V2.73828H4.23828V1.26172ZM4.23828 7.23828V5.76172H14.75V7.23828H4.23828ZM4.23828 11.7383V10.2617H14.75V11.7383H4.23828ZM1.17969 10.2266C1.41406 9.99219 1.68359 9.875 1.98828 9.875C2.29297 9.875 2.55078 9.99219 2.76172 10.2266C2.99609 10.4375 3.11328 10.6953 3.11328 11C3.11328 11.3047 2.99609 11.5742 2.76172 11.8086C2.55078 12.0195 2.29297 12.125 1.98828 12.125C1.68359 12.125 1.41406 12.0195 1.17969 11.8086C0.96875 11.5742 0.863281 11.3047 0.863281 11C0.863281 10.6953 0.96875 10.4375 1.17969 10.2266ZM1.17969 1.19141C1.41406 0.980469 1.68359 0.875 1.98828 0.875C2.29297 0.875 2.55078 0.980469 2.76172 1.19141C2.99609 1.40234 3.11328 1.67188 3.11328 2C3.11328 2.32812 2.99609 2.59766 2.76172 2.80859C2.55078 3.01953 2.29297 3.125 1.98828 3.125C1.68359 3.125 1.41406 3.01953 1.17969 2.80859C0.96875 2.59766 0.863281 2.32812 0.863281 2C0.863281 1.67188 0.96875 1.40234 1.17969 1.19141ZM1.17969 5.69141C1.41406 5.48047 1.68359 5.375 1.98828 5.375C2.29297 5.375 2.55078 5.48047 2.76172 5.69141C2.99609 5.90234 3.11328 6.17188 3.11328 6.5C3.11328 6.82812 2.99609 7.09766 2.76172 7.30859C2.55078 7.51953 2.29297 7.625 1.98828 7.625C1.68359 7.625 1.41406 7.51953 1.17969 7.30859C0.96875 7.09766 0.863281 6.82812 0.863281 6.5C0.863281 6.17188 0.96875 5.90234 1.17969 5.69141Z" fill="#64748B"/>
</svg>
