<svg width="18" height="18" viewBox="0 0 18 18" fill="none" xmlns="http://www.w3.org/2000/svg">
<path d="M14.8984 3.10156C16.513 4.71615 17.3203 6.68229 17.3203 9C17.3203 11.2917 16.5 13.2578 14.8594 14.8984C13.2448 16.513 11.2917 17.3203 9 17.3203C6.70833 17.3203 4.74219 16.513 3.10156 14.8984C1.48698 13.2578 0.679688 11.2917 0.679688 9C0.679688 6.70833 1.48698 4.75521 3.10156 3.14062C4.74219 1.5 6.70833 0.679688 9 0.679688H9.82031V7.55469C10.3932 7.86719 10.6797 8.34896 10.6797 9C10.6797 9.44271 10.5104 9.83333 10.1719 10.1719C9.83333 10.5104 9.44271 10.6797 9 10.6797C8.55729 10.6797 8.16667 10.5104 7.82812 10.1719C7.48958 9.83333 7.32031 9.44271 7.32031 9C7.32031 8.34896 7.60677 7.86719 8.17969 7.55469V5.79688C7.45052 6.00521 6.85156 6.39583 6.38281 6.96875C5.91406 7.54167 5.67969 8.21875 5.67969 9C5.67969 9.91146 6.00521 10.6927 6.65625 11.3438C7.30729 11.9948 8.08854 12.3203 9 12.3203C9.91146 12.3203 10.6927 11.9948 11.3438 11.3438C11.9948 10.6927 12.3203 9.91146 12.3203 9C12.3203 8.14062 11.9948 7.35938 11.3438 6.65625L12.5156 5.48438C13.5052 6.47396 14 7.64583 14 9C14 10.3802 13.5052 11.5651 12.5156 12.5547C11.5521 13.5182 10.3802 14 9 14C7.61979 14 6.4349 13.5182 5.44531 12.5547C4.48177 11.5651 4 10.3802 4 9C4 7.77604 4.39062 6.70833 5.17188 5.79688C5.97917 4.85938 6.98177 4.28646 8.17969 4.07812V2.39844C6.53906 2.60677 5.14583 3.33594 4 4.58594C2.88021 5.83594 2.32031 7.30729 2.32031 9C2.32031 10.8229 2.97135 12.3984 4.27344 13.7266C5.60156 15.0286 7.17708 15.6797 9 15.6797C10.8229 15.6797 12.3854 15.0286 13.6875 13.7266C15.0156 12.3984 15.6797 10.8229 15.6797 9C15.6797 7.15104 15.0286 5.57552 13.7266 4.27344L14.8984 3.10156Z" fill="#261E3B"/>
</svg>
