<svg width="36" height="40" viewBox="0 0 36 40" fill="none" xmlns="http://www.w3.org/2000/svg">
<g id="Group 106">
<path id="Vector" d="M35.7883 24.0004C35.7911 22.6653 35.443 21.3508 34.7758 20.1766C34.1085 19.0024 33.1433 18.0059 31.9681 17.278C30.7929 16.5501 29.4451 16.1138 28.0475 16.0091C26.65 15.9043 25.2471 16.1343 23.9668 16.6781C22.6864 17.2219 21.5694 18.0623 20.7174 19.1226C19.8655 20.1828 19.3057 21.4293 19.0891 22.7484C18.8726 24.0675 19.0061 25.4172 19.4775 26.6746C19.949 27.932 20.7434 29.0569 21.7883 29.947V40.0002L27.3883 37.4749L32.9883 40.0002V29.947C33.8684 29.1995 34.5728 28.2834 35.0554 27.2586C35.5379 26.2338 35.7876 25.1235 35.7883 24.0004ZM30.1883 35.7869L27.3883 34.5243L24.5883 35.7869V31.5337C26.3977 32.156 28.3788 32.156 30.1883 31.5337V35.7869ZM27.3883 29.3337C26.2807 29.3337 25.198 29.0209 24.2771 28.4349C23.3562 27.8489 22.6384 27.0159 22.2145 26.0414C21.7907 25.0669 21.6798 23.9945 21.8959 22.96C22.1119 21.9254 22.6453 20.9751 23.4285 20.2293C24.2116 19.4834 25.2095 18.9754 26.2958 18.7696C27.3821 18.5639 28.508 18.6695 29.5313 19.0731C30.5546 19.4768 31.4292 20.1604 32.0445 21.0374C32.6598 21.9145 32.9883 22.9456 32.9883 24.0004C32.9864 25.4144 32.3958 26.7699 31.346 27.7697C30.2962 28.7695 28.8729 29.3319 27.3883 29.3337Z" fill="#64748B"/>
<path id="Vector_2" d="M28.7891 3.99995H24.5891V2.66663C24.5868 1.96004 24.2911 1.283 23.7665 0.783369C23.2419 0.283736 22.531 0.00211027 21.7891 0H10.5891C9.84714 0.00211027 9.13623 0.283736 8.61161 0.783369C8.08699 1.283 7.79128 1.96004 7.78906 2.66663V3.99995H3.58906C2.84714 4.00206 2.13623 4.28368 1.61161 4.78331C1.08699 5.28295 0.791278 5.95999 0.789062 6.66658V34.6662C0.791278 35.3728 1.08699 36.0498 1.61161 36.5495C2.13623 37.0491 2.84714 37.3307 3.58906 37.3328H16.1891V34.6662H3.58906V6.66658H7.78906V10.6665H24.5891V6.66658H28.7891V13.3332H31.5891V6.66658C31.5868 5.95999 31.2911 5.28295 30.7665 4.78331C30.2419 4.28368 29.531 4.00206 28.7891 3.99995ZM21.7891 7.99989H10.5891V2.66663H21.7891V7.99989Z" fill="#64748B"/>
</g>
</svg>
