<svg width="16" height="16" viewBox="0 0 16 16" fill="none" xmlns="http://www.w3.org/2000/svg">
<g id="vuesax/linear/broom">
<g id="broom">
<path id="Vector" d="M9.4211 3.77942L11.7011 5.16609L12.7411 3.45943C13.1211 2.83276 12.9211 2.0061 12.2944 1.6261C11.6678 1.2461 10.8411 1.44608 10.4611 2.07275L9.4211 3.77942Z" stroke="#F4A607" stroke-width="1.5" stroke-linecap="round" stroke-linejoin="round"/>
<path id="Vector_2" d="M8.12187 6.10705L10.2285 7.38708C11.4552 8.13375 11.8285 9.64041 11.2352 10.8404L9.86855 13.6271C9.42855 14.5271 8.36187 14.8404 7.50854 14.3137L3.22188 11.7071C2.36188 11.1871 2.15521 10.1004 2.74854 9.29374L4.59521 6.80041C5.39521 5.72041 6.89521 5.36038 8.12187 6.10705Z" stroke="#F4A607" stroke-width="1.5" stroke-linecap="round" stroke-linejoin="round"/>
<path id="Vector_3" d="M8.82969 3.39812L12.2461 5.47852L10.8592 7.75612L7.44276 5.67572L8.82969 3.39812Z" stroke="#F4A607" stroke-width="1.5" stroke-linecap="round" stroke-linejoin="round"/>
<path id="Vector_4" d="M6.46094 11.207L5.36093 13.0137" stroke="#F4A607" stroke-width="1.5" stroke-linecap="round" stroke-linejoin="round"/>
<path id="Vector_5" d="M8.16797 12.2461L7.06797 14.0528" stroke="#F4A607" stroke-width="1.5" stroke-linecap="round" stroke-linejoin="round"/>
<path id="Vector_6" d="M4.75391 10.166L3.6539 11.9727" stroke="#F4A607" stroke-width="1.5" stroke-linecap="round" stroke-linejoin="round"/>
</g>
</g>
</svg>
