<svg width="15" height="16" viewBox="0 0 15 16" fill="none" xmlns="http://www.w3.org/2000/svg">
<path d="M12.7383 13.7383V5.51172H2.26172V13.7383H12.7383ZM10.4883 0.238281H12V1.75H12.7383C13.1367 1.75 13.4883 1.90234 13.793 2.20703C14.0977 2.51172 14.25 2.86328 14.25 3.26172V13.7383C14.25 14.1367 14.0977 14.4883 13.793 14.793C13.4883 15.0977 13.1367 15.25 12.7383 15.25H2.26172C1.83984 15.25 1.47656 15.1094 1.17188 14.8281C0.890625 14.5234 0.75 14.1602 0.75 13.7383V3.26172C0.75 2.86328 0.890625 2.51172 1.17188 2.20703C1.47656 1.90234 1.83984 1.75 2.26172 1.75H3V0.238281H4.51172V1.75H10.4883V0.238281ZM11.2617 8.5V12.2617H7.5V8.5H11.2617Z" fill="#64748B"/>
</svg>
