<svg width="40" height="41" viewBox="0 0 40 41" fill="none" xmlns="http://www.w3.org/2000/svg">
<path d="M34.4078 4.27058H30.071V1.11981C30.071 0.533517 29.5564 -0.0259239 28.9522 0.000929268C28.657 0.00610312 28.3754 0.125646 28.1667 0.334366C27.958 0.543086 27.8385 0.824681 27.8333 1.11981V4.27058H12.169V1.11981C12.169 0.533517 11.6543 -0.0259239 11.0501 0.000929268C10.7549 0.00610312 10.4733 0.125646 10.2646 0.334366C10.0559 0.543086 9.93636 0.824681 9.93119 1.11981V4.27058H5.59441C4.11122 4.27236 2.6893 4.86234 1.64053 5.9111C0.591756 6.95987 0.00177662 8.3818 0 9.86498V34.4804C0 37.5662 2.51077 40.0748 5.59441 40.0748H34.4056C37.4915 40.0748 40 37.5662 40 34.4804V9.86498C39.9988 8.38201 39.4093 6.96007 38.3609 5.91124C37.3125 4.86241 35.8908 4.27236 34.4078 4.27058ZM5.59441 6.50834H9.93119V7.8331C9.93119 8.41939 10.4459 8.97883 11.0501 8.95198C11.6565 8.92512 12.169 8.45967 12.169 7.8331V6.50834H27.8333V7.8331C27.8333 8.41939 28.348 8.97883 28.9522 8.95198C29.5586 8.92512 30.071 8.45967 30.071 7.8331V6.50834H34.4056C36.2562 6.50834 37.7622 8.01435 37.7622 9.86498V13.4096H2.23776V9.86498C2.23776 8.01435 3.74378 6.50834 5.59441 6.50834ZM34.4078 37.837H5.59441C3.74378 37.837 2.23776 36.331 2.23776 34.4804V15.6474H37.7622V34.4804C37.7622 35.3702 37.4089 36.2237 36.7799 36.8531C36.1509 37.4825 35.2977 37.8364 34.4078 37.837Z" fill="#64748B"/>
</svg>
