<svg width="23" height="17" viewBox="0 0 23 17" fill="none" xmlns="http://www.w3.org/2000/svg">
<path d="M21.9349 7.45508C21.577 6.97998 20.2474 6.65283 19.6849 5.79785C19.1224 4.94287 18.662 3.09131 17.2303 2.37988C15.7987 1.66846 13.0624 1.46875 11.4999 1.46875C9.93738 1.46875 7.203 1.66406 5.76941 2.37842C4.33581 3.09277 3.87732 4.94287 3.31482 5.79639C2.75232 6.6499 1.42273 6.97998 1.06482 7.45508C0.706909 7.93018 0.454956 10.9336 0.608276 12.4062C0.761596 13.8789 1.04773 14.75 1.04773 14.75H5.24695C5.93445 14.75 6.15808 14.4917 7.56433 14.3594C9.1073 14.2129 10.621 14.1641 11.4999 14.1641C12.3788 14.1641 13.9413 14.2129 15.4833 14.3594C16.8895 14.4927 17.1205 14.75 17.8007 14.75H21.9511C21.9511 14.75 22.2372 13.8789 22.3905 12.4062C22.5438 10.9336 22.2909 7.93018 21.9349 7.45508ZM18.5311 14.75H21.2655V15.5312H18.5311V14.75ZM1.73425 14.75H4.46863V15.5312H1.73425V14.75Z" stroke="white" stroke-linecap="round" stroke-linejoin="round"/>
<path d="M16.7965 11.0938C16.5079 10.7603 15.5675 10.482 14.3224 10.2955C13.0773 10.1089 12.6232 10.0606 11.5099 10.0606C10.3966 10.0606 9.89026 10.1407 8.6969 10.2955C7.50354 10.4502 6.60755 10.7256 6.22327 11.0938C5.64661 11.6524 6.49134 12.2793 7.15442 12.3555C7.797 12.4288 9.08167 12.4019 11.5153 12.4019C13.9489 12.4019 15.2335 12.4288 15.8761 12.3555C16.5382 12.2749 17.3224 11.6915 16.7965 11.0938ZM20.0729 7.86577C20.0701 7.82699 20.0532 7.79059 20.0252 7.76355C19.9973 7.73652 19.9604 7.72075 19.9215 7.71928C19.3449 7.69878 18.7594 7.73979 17.7208 8.04595C17.191 8.20063 16.6934 8.44975 16.2521 8.7813C16.1408 8.86821 16.1803 9.10307 16.3199 9.12798C17.176 9.22838 18.0371 9.27892 18.8991 9.27934C19.4161 9.27934 19.9498 9.13286 20.049 8.67192C20.0995 8.40616 20.1076 8.13406 20.0729 7.86577ZM2.92737 7.86577C2.93011 7.82699 2.94708 7.79059 2.97502 7.76355C3.00295 7.73652 3.03989 7.72075 3.07874 7.71928C3.6554 7.69878 4.24085 7.73979 5.27942 8.04595C5.80929 8.20063 6.30685 8.44975 6.74817 8.7813C6.8595 8.86821 6.81995 9.10307 6.6803 9.12798C5.82426 9.22838 4.96311 9.27892 4.1012 9.27934C3.58411 9.27934 3.05042 9.13286 2.9513 8.67192C2.90076 8.40616 2.89269 8.13406 2.92737 7.86577Z" fill="white"/>
<path d="M20.0938 5.375H20.875M2.125 5.375H2.90625M2.80859 6.30273C2.80859 6.30273 5.07178 5.7168 11.5 5.7168C17.9282 5.7168 20.1914 6.30273 20.1914 6.30273" stroke="white" stroke-linecap="round" stroke-linejoin="round"/>
</svg>
