<svg width="14" height="14" viewBox="0 0 14 14" fill="none" xmlns="http://www.w3.org/2000/svg">
<path d="M1.76149 5.48828H12.238L11.113 2.11328H2.88649L1.76149 5.48828ZM10.3045 8.93359C10.5388 9.14453 10.8084 9.25 11.113 9.25C11.4177 9.25 11.6755 9.14453 11.8865 8.93359C12.1209 8.72266 12.238 8.45312 12.238 8.125C12.238 7.79688 12.1209 7.52734 11.8865 7.31641C11.6755 7.10547 11.4177 7 11.113 7C10.8084 7 10.5388 7.10547 10.3045 7.31641C10.0935 7.52734 9.98805 7.79688 9.98805 8.125C9.98805 8.45312 10.0935 8.72266 10.3045 8.93359ZM2.07789 8.93359C2.31227 9.14453 2.5818 9.25 2.88649 9.25C3.19117 9.25 3.44899 9.14453 3.65992 8.93359C3.8943 8.72266 4.01149 8.45312 4.01149 8.125C4.01149 7.79688 3.8943 7.52734 3.65992 7.31641C3.44899 7.10547 3.19117 7 2.88649 7C2.5818 7 2.31227 7.10547 2.07789 7.31641C1.86696 7.52734 1.76149 7.79688 1.76149 8.125C1.76149 8.45312 1.86696 8.72266 2.07789 8.93359ZM12.2029 1.76172L13.7498 6.26172V12.2383C13.7498 12.4492 13.6795 12.6367 13.5388 12.8008C13.3982 12.9414 13.2224 13.0117 13.0115 13.0117H12.238C12.0271 13.0117 11.8513 12.9414 11.7107 12.8008C11.5701 12.6367 11.4998 12.4492 11.4998 12.2383V11.5H2.49977V12.2383C2.49977 12.4492 2.42946 12.6367 2.28883 12.8008C2.14821 12.9414 1.97242 13.0117 1.76149 13.0117H0.98805C0.777112 13.0117 0.601331 12.9414 0.460706 12.8008C0.320081 12.6367 0.249768 12.4492 0.249768 12.2383V6.26172L1.79664 1.76172C1.96071 1.24609 2.32399 0.988281 2.88649 0.988281H11.113C11.6755 0.988281 12.0388 1.24609 12.2029 1.76172Z" fill="#64748B"/>
</svg>
