<svg width="16" height="12" viewBox="0 0 16 12" fill="none" xmlns="http://www.w3.org/2000/svg">
<path d="M5.09091 8.72727C5.09091 6.98182 5.89091 5.45455 7.05455 4.36364H1.45455L2.54545 1.09091H10.5455L11.1273 2.90909C11.5636 2.90909 12 2.98182 12.3636 3.12727L11.5636 0.727273C11.4182 0.290909 10.9818 0 10.5455 0H2.54545C2.03636 0 1.67273 0.290909 1.52727 0.727273L0 5.09091V10.9091C0 11.2727 0.363636 11.6364 0.727273 11.6364H1.45455C1.81818 11.6364 2.18182 11.2727 2.18182 10.9091V10.1818H5.30909C5.16364 9.74545 5.09091 9.23636 5.09091 8.72727ZM2.54545 8C1.96364 8 1.45455 7.49091 1.45455 6.90909C1.45455 6.32727 1.96364 5.81818 2.54545 5.81818C3.12727 5.81818 3.63636 6.32727 3.63636 6.90909C3.63636 7.49091 3.12727 8 2.54545 8ZM10.9091 11.6364V10.1818H8.72727V9.45455H9.45455C10.2545 9.45455 10.9091 8.8 10.9091 8V7.27273C10.9091 6.47273 10.2545 5.81818 9.45455 5.81818H7.27273V7.27273H9.45455V8H8.72727C7.92727 8 7.27273 8.65454 7.27273 9.45455V11.6364M16 9.45455H14.5455V10.9091H13.0909V9.45455H11.6364V8H13.0909V6.54545H14.5455V8H16V9.45455Z" fill="#979797"/>
</svg>
