<svg width="16" height="17" viewBox="0 0 16 17" fill="none" xmlns="http://www.w3.org/2000/svg">
<path d="M5.37891 10.6006C5.37891 10.7178 5.4375 10.7764 5.55469 10.7764H14.2383V12.2881H5.23828C4.83984 12.2881 4.48828 12.1357 4.18359 11.8311C3.90234 11.5264 3.76172 11.1748 3.76172 10.7764C3.76172 10.542 3.82031 10.3076 3.9375 10.0732L4.95703 8.20996L2.25 2.51465H0.738281V1.03809H3.19922C3.66797 2.02246 4.13672 3.01855 4.60547 4.02637C4.72266 4.2373 4.99219 4.7998 5.41406 5.71387C5.83594 6.60449 6.16406 7.2959 6.39844 7.78809H11.6719C13.4297 4.60059 14.3906 2.84277 14.5547 2.51465L15.8555 3.25293L12.9727 8.49121C12.6914 9.00684 12.2578 9.26465 11.6719 9.26465H6.08203L5.41406 10.4951L5.37891 10.6006ZM11.707 13.4834C12.0117 13.1787 12.3633 13.0264 12.7617 13.0264C13.1602 13.0264 13.5 13.1787 13.7812 13.4834C14.0859 13.7881 14.2383 14.1396 14.2383 14.5381C14.2383 14.9365 14.0859 15.2881 13.7812 15.5928C13.5 15.874 13.1602 16.0146 12.7617 16.0146C12.3633 16.0146 12.0117 15.874 11.707 15.5928C11.4023 15.2881 11.25 14.9365 11.25 14.5381C11.25 14.1396 11.4023 13.7881 11.707 13.4834ZM4.18359 13.4834C4.48828 13.1787 4.83984 13.0264 5.23828 13.0264C5.63672 13.0264 5.98828 13.1787 6.29297 13.4834C6.59766 13.7881 6.75 14.1396 6.75 14.5381C6.75 14.9365 6.59766 15.2881 6.29297 15.5928C5.98828 15.874 5.63672 16.0146 5.23828 16.0146C4.83984 16.0146 4.48828 15.874 4.18359 15.5928C3.90234 15.2881 3.76172 14.9365 3.76172 14.5381C3.76172 14.1396 3.90234 13.7881 4.18359 13.4834ZM8.26172 6.27637V4.02637H6.01172V2.51465H8.26172V0.264648H9.73828V2.51465H11.9883V4.02637H9.73828V6.27637H8.26172Z" fill="#F4A607"/>
</svg>
