<svg width="45" height="46" viewBox="0 0 45 46" fill="none" xmlns="http://www.w3.org/2000/svg">
<path id="Vector" d="M13.4043 15.3404C13.4043 14.9595 13.5556 14.5942 13.8249 14.3249C14.0942 14.0556 14.4595 13.9043 14.8404 13.9043H30.1596C30.5405 13.9043 30.9058 14.0556 31.1751 14.3249C31.4444 14.5942 31.5957 14.9595 31.5957 15.3404C31.5957 15.7213 31.4444 16.0866 31.1751 16.3559C30.9058 16.6253 30.5405 16.7766 30.1596 16.7766H14.8404C14.4595 16.7766 14.0942 16.6253 13.8249 16.3559C13.5556 16.0866 13.4043 15.7213 13.4043 15.3404ZM14.8404 24.4362H30.1596C30.5405 24.4362 30.9058 24.2849 31.1751 24.0155C31.4444 23.7462 31.5957 23.3809 31.5957 23C31.5957 22.6191 31.4444 22.2538 31.1751 21.9845C30.9058 21.7151 30.5405 21.5638 30.1596 21.5638H14.8404C14.4595 21.5638 14.0942 21.7151 13.8249 21.9845C13.5556 22.2538 13.4043 22.6191 13.4043 23C13.4043 23.3809 13.5556 23.7462 13.8249 24.0155C14.0942 24.2849 14.4595 24.4362 14.8404 24.4362ZM22.5 29.2234H14.8404C14.4595 29.2234 14.0942 29.3747 13.8249 29.644C13.5556 29.9134 13.4043 30.2787 13.4043 30.6596C13.4043 31.0405 13.5556 31.4058 13.8249 31.6751C14.0942 31.9444 14.4595 32.0957 14.8404 32.0957H22.5C22.8809 32.0957 23.2462 31.9444 23.5155 31.6751C23.7849 31.4058 23.9362 31.0405 23.9362 30.6596C23.9362 30.2787 23.7849 29.9134 23.5155 29.644C23.2462 29.3747 22.8809 29.2234 22.5 29.2234ZM45 3.85106V29.8673C45.0008 30.3075 44.9145 30.7435 44.7461 31.1502C44.5777 31.5569 44.3304 31.9262 44.0186 32.237L31.737 44.5186C31.4262 44.8304 31.0569 45.0777 30.6502 45.2461C30.2435 45.4145 29.8075 45.5008 29.3673 45.5H3.35106C2.46231 45.5 1.60995 45.1469 0.981504 44.5185C0.353058 43.89 0 43.0377 0 42.1489V3.85106C0 2.96231 0.353058 2.10995 0.981504 1.4815C1.60995 0.853058 2.46231 0.5 3.35106 0.5H41.6489C42.5377 0.5 43.39 0.853058 44.0185 1.4815C44.6469 2.10995 45 2.96231 45 3.85106ZM3.35106 42.6277H28.7234V30.6596C28.7234 30.2787 28.8747 29.9134 29.144 29.644C29.4134 29.3747 29.7787 29.2234 30.1596 29.2234H42.1277V3.85106C42.1277 3.7241 42.0772 3.60233 41.9874 3.51255C41.8977 3.42278 41.7759 3.37234 41.6489 3.37234H3.35106C3.2241 3.37234 3.10233 3.42278 3.01255 3.51255C2.92278 3.60233 2.87234 3.7241 2.87234 3.85106V42.1489C2.87234 42.2759 2.92278 42.3977 3.01255 42.4874C3.10233 42.5772 3.2241 42.6277 3.35106 42.6277ZM40.0979 32.0957H31.5957V40.5979L40.0979 32.0957Z" fill="#64748B"/>
</svg>
