<svg width="19" height="14" viewBox="0 0 19 14" fill="none" xmlns="http://www.w3.org/2000/svg">
<path id="Vector" d="M9.5 0C7.05375 0 5.13 1.85844 4.86103 4.23047C4.34366 4.31384 3.85846 4.53553 3.45678 4.8721C3.0551 5.20866 2.7519 5.64756 2.57925 6.14234C1.11862 6.56331 0 7.866 0 9.5C0 11.4736 1.58888 13.0625 3.5625 13.0625H15.4375C17.4111 13.0625 19 11.4736 19 9.5C19 8.455 18.4923 7.51925 17.7567 6.86494C17.6189 4.7785 15.9547 3.11363 13.8605 3.00556C13.1456 1.26647 11.5057 0 9.5 0ZM9.5 1.1875C11.1399 1.1875 12.4509 2.23844 12.9141 3.72875L13.0447 4.15625H13.6562C15.292 4.15625 16.625 5.48922 16.625 7.125V7.42188L16.8661 7.60772C17.157 7.8307 17.3934 8.11694 17.5574 8.44478C17.7213 8.77262 17.8086 9.13346 17.8125 9.5C17.8125 10.8514 16.7889 11.875 15.4375 11.875H3.5625C2.21112 11.875 1.1875 10.8514 1.1875 9.5C1.1875 8.30063 2.04844 7.36962 3.135 7.18081L3.52509 7.10659L3.59931 6.7165C3.77744 5.91553 4.48637 5.34375 5.34375 5.34375H5.9375V4.75C5.9375 2.74906 7.49906 1.1875 9.5 1.1875ZM8.90625 4.15625V8.05303L7.5525 6.69809L6.6975 7.55309L9.0725 9.92809L9.5 10.3354L9.9275 9.9275L12.3025 7.5525L11.4475 6.6975L10.0938 8.05303V4.15625H8.90625Z" fill="#64748B"/>
</svg>
