<svg width="16" height="18" viewBox="0 0 16 18" fill="none" xmlns="http://www.w3.org/2000/svg">
<path d="M0 2.25C0 1.65326 0.237053 1.08097 0.65901 0.65901C1.08097 0.237053 1.65326 0 2.25 0C2.84674 0 3.41903 0.237053 3.84099 0.65901C4.26295 1.08097 4.5 1.65326 4.5 2.25V3.375H6.28312C6.39908 3.04538 6.6145 2.75988 6.89964 2.55792C7.18478 2.35596 7.52558 2.24749 7.875 2.24749C8.22442 2.24749 8.56522 2.35596 8.85036 2.55792C9.1355 2.75988 9.35092 3.04538 9.46688 3.375H11.25V2.25C11.25 1.65326 11.4871 1.08097 11.909 0.65901C12.331 0.237053 12.9033 0 13.5 0C14.0967 0 14.669 0.237053 15.091 0.65901C15.5129 1.08097 15.75 1.65326 15.75 2.25V5.625C15.75 6.22174 15.5129 6.79403 15.091 7.21599C14.669 7.63795 14.0967 7.875 13.5 7.875C12.9033 7.875 12.331 7.63795 11.909 7.21599C11.4871 6.79403 11.25 6.22174 11.25 5.625V4.5H9.46688C9.38244 4.73722 9.24626 4.95266 9.06821 5.13071C8.89016 5.30876 8.67472 5.44494 8.4375 5.52938V12.4706C8.91675 12.6405 9.297 13.0208 9.46688 13.5H11.25V12.375C11.25 11.7783 11.4871 11.206 11.909 10.784C12.331 10.3621 12.9033 10.125 13.5 10.125C14.0967 10.125 14.669 10.3621 15.091 10.784C15.5129 11.206 15.75 11.7783 15.75 12.375V15.75C15.75 16.3467 15.5129 16.919 15.091 17.341C14.669 17.7629 14.0967 18 13.5 18C12.9033 18 12.331 17.7629 11.909 17.341C11.4871 16.919 11.25 16.3467 11.25 15.75V14.625H9.46688C9.35092 14.9546 9.1355 15.2401 8.85036 15.4421C8.56522 15.644 8.22442 15.7525 7.875 15.7525C7.52558 15.7525 7.18478 15.644 6.89964 15.4421C6.6145 15.2401 6.39908 14.9546 6.28312 14.625H4.5V15.75C4.5 16.3467 4.26295 16.919 3.84099 17.341C3.41903 17.7629 2.84674 18 2.25 18C1.65326 18 1.08097 17.7629 0.65901 17.341C0.237053 16.919 0 16.3467 0 15.75V12.375C0 11.7783 0.237053 11.206 0.65901 10.784C1.08097 10.3621 1.65326 10.125 2.25 10.125C2.84674 10.125 3.41903 10.3621 3.84099 10.784C4.26295 11.206 4.5 11.7783 4.5 12.375V13.5H6.28312C6.453 13.0208 6.83325 12.6405 7.3125 12.4706V5.52938C7.07513 5.44522 6.85953 5.30914 6.68145 5.13105C6.50336 4.95297 6.36728 4.73737 6.28312 4.5H4.5V5.625C4.5 6.22174 4.26295 6.79403 3.84099 7.21599C3.41903 7.63795 2.84674 7.875 2.25 7.875C1.65326 7.875 1.08097 7.63795 0.65901 7.21599C0.237053 6.79403 0 6.22174 0 5.625V2.25ZM2.25 1.125C1.95163 1.125 1.66548 1.24353 1.45451 1.4545C1.24353 1.66548 1.125 1.95163 1.125 2.25V5.625C1.125 5.92337 1.24353 6.20952 1.45451 6.4205C1.66548 6.63147 1.95163 6.75 2.25 6.75C2.54837 6.75 2.83452 6.63147 3.0455 6.4205C3.25647 6.20952 3.375 5.92337 3.375 5.625V2.25C3.375 1.95163 3.25647 1.66548 3.0455 1.4545C2.83452 1.24353 2.54837 1.125 2.25 1.125ZM13.5 1.125C13.2016 1.125 12.9155 1.24353 12.7045 1.4545C12.4935 1.66548 12.375 1.95163 12.375 2.25V5.625C12.375 5.92337 12.4935 6.20952 12.7045 6.4205C12.9155 6.63147 13.2016 6.75 13.5 6.75C13.7984 6.75 14.0845 6.63147 14.2955 6.4205C14.5065 6.20952 14.625 5.92337 14.625 5.625V2.25C14.625 1.95163 14.5065 1.66548 14.2955 1.4545C14.0845 1.24353 13.7984 1.125 13.5 1.125ZM2.25 11.25C1.95163 11.25 1.66548 11.3685 1.45451 11.5795C1.24353 11.7905 1.125 12.0766 1.125 12.375V15.75C1.125 16.0484 1.24353 16.3345 1.45451 16.5455C1.66548 16.7565 1.95163 16.875 2.25 16.875C2.54837 16.875 2.83452 16.7565 3.0455 16.5455C3.25647 16.3345 3.375 16.0484 3.375 15.75V12.375C3.375 12.0766 3.25647 11.7905 3.0455 11.5795C2.83452 11.3685 2.54837 11.25 2.25 11.25ZM12.375 12.375V15.75C12.375 16.0484 12.4935 16.3345 12.7045 16.5455C12.9155 16.7565 13.2016 16.875 13.5 16.875C13.7984 16.875 14.0845 16.7565 14.2955 16.5455C14.5065 16.3345 14.625 16.0484 14.625 15.75V12.375C14.625 12.0766 14.5065 11.7905 14.2955 11.5795C14.0845 11.3685 13.7984 11.25 13.5 11.25C13.2016 11.25 12.9155 11.3685 12.7045 11.5795C12.4935 11.7905 12.375 12.0766 12.375 12.375Z" fill="#64748B"/>
</svg>
