<svg width="36" height="36" viewBox="0 0 36 36" fill="none" xmlns="http://www.w3.org/2000/svg">
<path d="M18 1C8.6109 1 1 8.6109 1 18C1 27.3891 8.6109 35 18 35C27.3891 35 35 27.3891 35 18C35 8.6109 27.3891 1 18 1Z" stroke="#64748B" stroke-width="1.5" stroke-linecap="round" stroke-linejoin="round"/>
<path d="M4.85938 28.789C4.85938 28.789 8.64868 23.9508 17.9987 23.9508C27.3487 23.9508 31.1397 28.789 31.1397 28.789M17.9987 18.0008C19.3513 18.0008 20.6485 17.4635 21.6049 16.507C22.5614 15.5506 23.0987 14.2534 23.0987 12.9008C23.0987 11.5482 22.5614 10.251 21.6049 9.29454C20.6485 8.3381 19.3513 7.80078 17.9987 7.80078C16.6461 7.80078 15.3489 8.3381 14.3924 9.29454C13.436 10.251 12.8987 11.5482 12.8987 12.9008C12.8987 14.2534 13.436 15.5506 14.3924 16.507C15.3489 17.4635 16.6461 18.0008 17.9987 18.0008Z" stroke="#64748B" stroke-width="1.5" stroke-linecap="round" stroke-linejoin="round"/>
</svg>
