<svg width="16" height="16" viewBox="0 0 16 16" fill="none" xmlns="http://www.w3.org/2000/svg">
<path d="M9.5818 6.41797C10.0271 6.86328 10.2498 7.39062 10.2498 8C10.2498 8.60938 10.0271 9.13672 9.5818 9.58203C9.13649 10.0273 8.60914 10.25 7.99977 10.25C7.39039 10.25 6.86305 10.0273 6.41774 9.58203C5.97242 9.13672 5.74977 8.60938 5.74977 8C5.74977 7.39062 5.97242 6.86328 6.41774 6.41797C6.86305 5.97266 7.39039 5.75 7.99977 5.75C8.60914 5.75 9.13649 5.97266 9.5818 6.41797ZM3.74586 12.2539C4.94117 13.4258 6.35914 14.0117 7.99977 14.0117C9.64039 14.0117 11.0466 13.4258 12.2185 12.2539C13.4138 11.0586 14.0115 9.64062 14.0115 8C14.0115 6.35937 13.4138 4.95312 12.2185 3.78125C11.0466 2.58594 9.64039 1.98828 7.99977 1.98828C6.35914 1.98828 4.94117 2.58594 3.74586 3.78125C2.57399 4.95312 1.98805 6.35937 1.98805 8C1.98805 9.64062 2.57399 11.0586 3.74586 12.2539ZM2.69117 2.72656C4.16774 1.25 5.93727 0.511719 7.99977 0.511719C10.0623 0.511719 11.8201 1.25 13.2732 2.72656C14.7498 4.17969 15.488 5.9375 15.488 8C15.488 10.0625 14.7498 11.832 13.2732 13.3086C11.8201 14.7617 10.0623 15.4883 7.99977 15.4883C5.93727 15.4883 4.16774 14.7617 2.69117 13.3086C1.23805 11.832 0.511487 10.0625 0.511487 8C0.511487 5.9375 1.23805 4.17969 2.69117 2.72656Z" fill="#64748B"/>
</svg>
