<svg width="25" height="26" viewBox="0 0 25 26" fill="none" xmlns="http://www.w3.org/2000/svg">
<g clip-path="url(#clip0_1907_62915)">
<path d="M21.0938 9.6875C20.6562 9.6875 20.3125 9.34375 20.3125 8.90625V2.84375C20.3125 2.40625 19.9688 2.0625 19.5312 2.0625H5.46875C5.03125 2.0625 4.6875 2.40625 4.6875 2.84375V5.96875C4.6875 6.40625 4.34375 6.75 3.90625 6.75C3.46875 6.75 3.125 6.40625 3.125 5.96875V2.84375C3.125 1.54688 4.17188 0.5 5.46875 0.5H19.5312C20.8281 0.5 21.875 1.54688 21.875 2.84375V8.90625C21.875 9.34375 21.5312 9.6875 21.0938 9.6875Z" fill="#F4A607"/>
<path d="M22.6562 25.5H2.34375C1.04688 25.5 0 24.4531 0 23.1562V7.53125C0 6.23438 1.04688 5.1875 2.34375 5.1875H9.76562C10.0156 5.1875 10.25 5.29688 10.3906 5.5L12.5 8.3125H22.6562C23.9531 8.3125 25 9.35938 25 10.6562V23.1562C25 24.4531 23.9531 25.5 22.6562 25.5ZM2.34375 6.75C1.90625 6.75 1.5625 7.09375 1.5625 7.53125V23.1562C1.5625 23.5938 1.90625 23.9375 2.34375 23.9375H22.6562C23.0938 23.9375 23.4375 23.5938 23.4375 23.1562V10.6562C23.4375 10.2188 23.0938 9.875 22.6562 9.875H12.1094C11.9877 9.87755 11.8671 9.85043 11.7583 9.79599C11.6494 9.74154 11.5554 9.6614 11.4844 9.5625L9.375 6.75H2.34375Z" fill="#F4A607"/>
<path d="M8.59375 20.8125H5.46875C5.03125 20.8125 4.6875 20.4688 4.6875 20.0312C4.6875 19.5938 5.03125 19.25 5.46875 19.25H8.59375C9.03125 19.25 9.375 19.5938 9.375 20.0312C9.375 20.4688 9.03125 20.8125 8.59375 20.8125Z" fill="#F4A607"/>
</g>
<defs>
<clipPath id="clip0_1907_62915">
<rect width="25" height="25" fill="white" transform="translate(0 0.5)"/>
</clipPath>
</defs>
</svg>
