<svg width="14" height="15" viewBox="0 0 14 15" fill="none" xmlns="http://www.w3.org/2000/svg">
<path d="M7 14.3587C8.26389 14.3587 9.43866 14.0427 10.5243 13.4108C11.5938 12.795 12.4363 11.9525 13.0521 10.883C13.684 9.79736 14 8.62259 14 7.3587C14 6.8888 13.9514 6.41889 13.8542 5.94898L13.8299 5.80315H7V8.13648H11.6667C11.537 8.86565 11.2494 9.52595 10.8038 10.1174C10.3582 10.7088 9.80324 11.1747 9.13889 11.515C8.47454 11.8552 7.76157 12.0254 7 12.0254C6.15741 12.0254 5.37963 11.8147 4.66667 11.3934C3.9537 10.9721 3.38657 10.405 2.96528 9.69204C2.54398 8.97907 2.33333 8.2013 2.33333 7.3587C2.33333 6.51611 2.54398 5.73833 2.96528 5.02537C3.38657 4.31241 3.9537 3.74528 4.66667 3.32398C5.37963 2.90268 6.15741 2.69204 7 2.69204C7.56713 2.69204 8.114 2.79331 8.64062 2.99586C9.16725 3.1984 9.6331 3.47792 10.0382 3.8344L11.7153 2.18162C11.0833 1.61449 10.3623 1.16889 9.55208 0.844815C8.7419 0.520741 7.8912 0.358704 7 0.358704C5.73611 0.358704 4.56134 0.674676 3.47569 1.30662C2.40625 1.92236 1.56366 2.76495 0.947917 3.8344C0.315972 4.92005 0 6.09481 0 7.3587C0 8.62259 0.315972 9.79736 0.947917 10.883C1.56366 11.9525 2.40625 12.795 3.47569 13.4108C4.56134 14.0427 5.73611 14.3587 7 14.3587Z" fill="#64748B"/>
</svg>
