<svg width="18" height="18" viewBox="0 0 18 18" fill="none" xmlns="http://www.w3.org/2000/svg">
<path d="M4.27344 13.7266C5.60156 15.0286 7.17708 15.6797 9 15.6797C10.8229 15.6797 12.3854 15.0286 13.6875 13.7266C15.0156 12.3984 15.6797 10.8229 15.6797 9C15.6797 7.17708 15.0156 5.61458 13.6875 4.3125C12.3854 2.98438 10.8229 2.32031 9 2.32031C7.17708 2.32031 5.60156 2.98438 4.27344 4.3125C2.97135 5.61458 2.32031 7.17708 2.32031 9C2.32031 10.8229 2.97135 12.3984 4.27344 13.7266ZM3.10156 3.14062C4.74219 1.5 6.70833 0.679688 9 0.679688C11.2917 0.679688 13.2448 1.5 14.8594 3.14062C16.5 4.75521 17.3203 6.70833 17.3203 9C17.3203 11.2917 16.5 13.2578 14.8594 14.8984C13.2448 16.513 11.2917 17.3203 9 17.3203C6.70833 17.3203 4.74219 16.513 3.10156 14.8984C1.48698 13.2578 0.679688 11.2917 0.679688 9C0.679688 6.70833 1.48698 4.75521 3.10156 3.14062ZM6.03125 6.07031C6.86458 5.23698 7.85417 4.82031 9 4.82031C10.1458 4.82031 11.1224 5.23698 11.9297 6.07031C12.763 6.8776 13.1797 7.85417 13.1797 9C13.1797 10.1458 12.763 11.1354 11.9297 11.9688C11.1224 12.776 10.1458 13.1797 9 13.1797C7.85417 13.1797 6.86458 12.776 6.03125 11.9688C5.22396 11.1354 4.82031 10.1458 4.82031 9C4.82031 7.85417 5.22396 6.8776 6.03125 6.07031Z" fill="#261E3B"/>
</svg>
