<svg width="19" height="20" viewBox="0 0 19 20" fill="none" xmlns="http://www.w3.org/2000/svg">
<path fill-rule="evenodd" clip-rule="evenodd" d="M18.533 14.7449C18.039 13.7869 16.994 13.1449 15.729 13.3039C14.515 13.4559 13.141 13.6839 11.759 14.0299C9.51198 14.5919 7.57798 15.7299 6.24598 16.6839L5.84598 16.9789L5.66198 17.1189L5.32598 17.3849L5.03498 17.6249L4.68798 17.9269C3.84398 18.6779 4.41798 19.9049 5.37198 19.9949L5.48398 19.9999H14.079C14.7861 19.9998 15.4852 19.8498 16.13 19.5597C16.7749 19.2696 17.3509 18.846 17.82 18.3169L17.983 18.1229L18.183 17.8739C18.956 16.9069 19.021 15.6909 18.533 14.7449ZM15.977 15.2879C16.377 15.2379 16.63 15.4189 16.756 15.6619C16.8222 15.7955 16.852 15.9443 16.8426 16.0931C16.8331 16.242 16.7846 16.3857 16.702 16.5099L16.621 16.6249L16.421 16.8749C16.1604 17.2005 15.8348 17.4681 15.4649 17.6608C15.0951 17.8535 14.6891 17.9669 14.273 17.9939L14.079 17.9999H7.85798C9.00798 17.2269 10.535 16.3969 12.244 15.9699C13.4737 15.6689 14.7202 15.4405 15.977 15.2879ZM3.00098 -0.000117533C2.38098 -0.000117533 1.92698 0.337882 1.64098 0.703882C1.36798 1.05088 1.19098 1.48388 1.06798 1.89988C0.817982 2.74288 0.700983 3.82688 0.655983 4.90888C0.618982 5.81988 0.631981 6.78488 0.678982 7.68488L0.720982 8.34488C0.790981 9.31288 0.900982 10.1599 1.02498 10.7169C1.55798 13.1149 2.48998 14.5639 3.53298 15.3539C4.53198 16.1099 5.68998 16.2739 6.44798 15.8939C6.77898 15.7289 7.09998 15.4319 7.36598 15.1239C7.68582 14.7483 7.9551 14.3324 8.16698 13.8869C8.63298 12.9119 8.91998 11.5939 8.44998 10.1839C8.15898 9.31088 7.59798 8.76688 7.10398 8.35988L6.78598 8.10388C6.22298 7.65588 5.75498 7.27188 5.39598 6.55288C5.30298 6.36688 5.23498 5.99288 5.21898 5.35788L5.21598 5.05488L5.22398 4.30888C5.22898 4.00888 5.23398 3.69188 5.23098 3.38488C5.22398 2.73488 5.18298 1.96488 4.93098 1.33788C4.79698 1.00488 4.58298 0.656882 4.23398 0.392882C3.87755 0.129538 3.44407 -0.00862648 3.00098 -0.000117533ZM3.09798 2.14988C3.18098 2.40188 3.22498 2.80988 3.23098 3.40488V3.68688L3.22198 4.37588C3.21698 4.71088 3.21198 5.06388 3.21998 5.40588C3.23598 6.04788 3.29598 6.82588 3.60698 7.44688C4.04198 8.31888 4.59998 8.88388 5.09698 9.30688L5.38698 9.54688L5.53998 9.66788C6.13498 10.1419 6.40898 10.3849 6.55198 10.8159C6.81598 11.6059 6.67198 12.3789 6.36198 13.0239C6.20898 13.3469 6.02198 13.6189 5.84898 13.8199C5.76898 13.9139 5.69998 13.9809 5.64998 14.0259L5.57498 14.0899L5.47998 14.0859C5.34698 14.0749 5.08598 14.0219 4.73998 13.7599C4.19298 13.3449 3.44398 12.3849 2.97698 10.2829C2.93498 10.0919 2.89298 9.84688 2.85398 9.56188L2.79798 9.10488C2.78798 9.02488 2.77998 8.94188 2.77198 8.85688L2.72498 8.32688L2.68598 7.75888L2.66998 7.46388L2.64698 6.85788C2.62782 6.23565 2.63015 5.61295 2.65398 4.99088C2.69698 3.96388 2.80598 3.07388 2.98598 2.46788C3.01698 2.35943 3.05437 2.25391 3.09798 2.14988Z" fill="#64748B"/>
</svg>
