<svg width="18" height="18" viewBox="0 0 18 18" fill="none" xmlns="http://www.w3.org/2000/svg">
<path id="Vector" d="M13.4525 11.4702H12.6625L12.3825 11.2002C13.0074 10.4742 13.4642 9.61896 13.72 8.6958C13.9759 7.77264 14.0245 6.80434 13.8625 5.86019C13.3925 3.08019 11.0725 0.86019 8.27249 0.52019C7.28811 0.395655 6.28828 0.497961 5.34951 0.819279C4.41075 1.1406 3.55793 1.67241 2.85632 2.37402C2.15471 3.07563 1.6229 3.92845 1.30158 4.86721C0.980261 5.80598 0.877955 6.80581 1.00249 7.79019C1.34249 10.5902 3.56249 12.9102 6.34249 13.3802C7.28664 13.5422 8.25494 13.4936 9.1781 13.2377C10.1013 12.9819 10.9565 12.5251 11.6825 11.9002L11.9525 12.1802V12.9702L16.2025 17.2202C16.6125 17.6302 17.2825 17.6302 17.6925 17.2202C18.1025 16.8102 18.1025 16.1402 17.6925 15.7302L13.4525 11.4702ZM7.45249 11.4702C4.96249 11.4702 2.95249 9.46019 2.95249 6.97019C2.95249 4.48019 4.96249 2.47019 7.45249 2.47019C9.94249 2.47019 11.9525 4.48019 11.9525 6.97019C11.9525 9.46019 9.94249 11.4702 7.45249 11.4702Z" fill="#64748B"/>
</svg>
