<svg width="17" height="18" viewBox="0 0 17 18" fill="none" xmlns="http://www.w3.org/2000/svg">
<path d="M8.14844 8.76772H16.5007M16.5007 8.76772L14.1144 6.38135M16.5007 8.76772L14.1144 11.1541" stroke="#1E293B" stroke-linecap="round" stroke-linejoin="round"/>
<path d="M14.3523 14.1251C13.2808 15.2418 11.8998 16.0125 10.3868 16.338C8.87377 16.6635 7.29798 16.5288 5.86211 15.9514C4.42624 15.374 3.19594 14.3802 2.32948 13.0979C1.46301 11.8156 1 10.3033 1 8.75572C1 7.2081 1.46301 5.69587 2.32948 4.41353C3.19594 3.1312 4.42624 2.13742 5.86211 1.56001C7.29798 0.982606 8.87377 0.84798 10.3868 1.17345C11.8998 1.49892 13.2808 2.26961 14.3523 3.38638" stroke="#1E293B" stroke-linecap="round" stroke-linejoin="round"/>
</svg>
