<svg width="14" height="14" viewBox="0 0 14 14" fill="none" xmlns="http://www.w3.org/2000/svg">
<path d="M10.9724 5.27734C11.113 5.41797 11.2888 5.48828 11.4998 5.48828C11.7107 5.48828 11.8865 5.41797 12.0271 5.27734C12.1677 5.13672 12.238 4.96094 12.238 4.75C12.238 4.53906 12.1677 4.36328 12.0271 4.22266C11.8865 4.08203 11.7107 4.01172 11.4998 4.01172C11.2888 4.01172 11.113 4.08203 10.9724 4.22266C10.8318 4.36328 10.7615 4.53906 10.7615 4.75C10.7615 4.96094 10.8318 5.13672 10.9724 5.27734ZM6.99977 5.48828V1.76172H2.49977V5.48828H6.99977ZM12.8357 3.41406C13.1873 3.76562 13.363 4.21094 13.363 4.75V11.8867C13.363 12.4023 13.1755 12.8477 12.8005 13.2227C12.449 13.5742 12.0154 13.75 11.4998 13.75C10.9841 13.75 10.5388 13.5742 10.1638 13.2227C9.81227 12.8477 9.63649 12.4023 9.63649 11.8867V8.125H8.51149V13.75H0.98805V1.76172C0.98805 1.36328 1.14039 1.01172 1.44508 0.707031C1.74977 0.402344 2.10133 0.25 2.49977 0.25H6.99977C7.39821 0.25 7.74977 0.402344 8.05446 0.707031C8.35914 1.01172 8.51149 1.36328 8.51149 1.76172V7H9.24977C9.64821 7 9.99977 7.15234 10.3045 7.45703C10.6091 7.76172 10.7615 8.11328 10.7615 8.51172V11.8867C10.7615 12.0977 10.8318 12.2734 10.9724 12.4141C11.113 12.5547 11.2888 12.625 11.4998 12.625C11.7107 12.625 11.8865 12.5547 12.0271 12.4141C12.1677 12.2734 12.238 12.0977 12.238 11.8867V6.47266C12.0271 6.56641 11.781 6.61328 11.4998 6.61328C10.9841 6.61328 10.5388 6.4375 10.1638 6.08594C9.81227 5.71094 9.63649 5.26563 9.63649 4.75C9.63649 3.90625 10.0349 3.32031 10.8318 2.99219L9.24977 1.41016L10.0584 0.636719L12.8357 3.41406Z" fill="#64748B"/>
</svg>
