<svg width="14" height="20" viewBox="0 0 14 20" fill="none" xmlns="http://www.w3.org/2000/svg">
<path d="M7 0C9.57812 0 11.7396 0.898438 13.4844 2.69531L12.3125 3.86719C10.8542 2.40885 9.08333 1.67969 7 1.67969C4.91667 1.67969 3.14583 2.40885 1.6875 3.86719L0.515625 2.69531C2.3125 0.898438 4.47396 0 7 0ZM2.85938 5.03906C4.00521 3.89323 5.38542 3.32031 7 3.32031C8.61458 3.32031 9.99479 3.89323 11.1406 5.03906L9.96875 6.21094C9.16146 5.40365 8.17188 5 7 5C5.82812 5 4.83854 5.40365 4.03125 6.21094L2.85938 5.03906ZM5.82812 11.9922C6.16667 12.3307 6.55729 12.5 7 12.5C7.44271 12.5 7.83333 12.3307 8.17188 11.9922C8.51042 11.6536 8.67969 11.263 8.67969 10.8203C8.67969 10.3776 8.51042 10 8.17188 9.6875C7.83333 9.34896 7.44271 9.17969 7 9.17969C6.55729 9.17969 6.16667 9.34896 5.82812 9.6875C5.48958 10 5.32031 10.3776 5.32031 10.8203C5.32031 11.263 5.48958 11.6536 5.82812 11.9922ZM9.5 7.5C9.73438 7.5 9.92969 7.57812 10.0859 7.73438C10.2422 7.89062 10.3203 8.08594 10.3203 8.32031V18.3203C10.3203 18.5547 10.2422 18.763 10.0859 18.9453C9.92969 19.1016 9.73438 19.1797 9.5 19.1797H4.5C4.26562 19.1797 4.07031 19.1016 3.91406 18.9453C3.75781 18.763 3.67969 18.5547 3.67969 18.3203V8.32031C3.67969 8.08594 3.75781 7.89062 3.91406 7.73438C4.07031 7.57812 4.26562 7.5 4.5 7.5H9.5Z" fill="#261E3B"/>
</svg>
