<svg width="29" height="25" viewBox="0 0 29 25" fill="none" xmlns="http://www.w3.org/2000/svg">
<g id="Group 85">
<path id="Vector" d="M7.71177 11.6051C8.01679 11.6051 8.31496 11.6836 8.56857 11.8308C8.82219 11.9779 9.01986 12.1871 9.13658 12.4318C9.25331 12.6765 9.28385 12.9458 9.22434 13.2056C9.16484 13.4654 9.01795 13.7041 8.80227 13.8914C8.58659 14.0787 8.3118 14.2062 8.01264 14.2579C7.71348 14.3096 7.40339 14.283 7.12159 14.1817C6.83979 14.0803 6.59893 13.9086 6.42947 13.6884C6.26001 13.4682 6.16956 13.2092 6.16956 12.9443C6.16956 12.5891 6.33204 12.2485 6.62126 11.9973C6.91048 11.7462 7.30275 11.6051 7.71177 11.6051ZM7.71177 9.81934C7.00005 9.81934 6.30432 10.0026 5.71256 10.346C5.12079 10.6894 4.65956 11.1774 4.3872 11.7485C4.11484 12.3195 4.04358 12.9478 4.18243 13.554C4.32128 14.1602 4.664 14.717 5.16725 15.154C5.67051 15.5911 6.3117 15.8887 7.00974 16.0093C7.70778 16.1299 8.43131 16.068 9.08885 15.8315C9.74638 15.5949 10.3084 15.1944 10.7038 14.6805C11.0992 14.1666 11.3103 13.5624 11.3103 12.9443C11.3103 12.1155 10.9311 11.3207 10.2563 10.7346C9.58143 10.1486 8.66615 9.81934 7.71177 9.81934Z" fill="#64748B"/>
<path id="Vector_2" d="M23.6472 10.7119H15.4221C14.8767 10.7119 14.3537 10.9 13.9681 11.2349C13.5824 11.5698 13.3658 12.024 13.3658 12.4976V17.8548H2.05628V7.67619L14.3939 1.90833L27.2765 7.92619L28.243 6.35476L14.8772 0.104762C14.7284 0.0359761 14.5625 0 14.3939 0C14.2254 0 14.0595 0.0359761 13.9107 0.104762L0.544913 6.35476C0.380741 6.43068 0.243358 6.54385 0.147398 6.68221C0.0514379 6.82058 0.000496293 6.97895 0 7.14048V24.9976H2.05628V19.6405H26.7316V24.9976H28.7879V15.1762C28.7879 13.9922 28.2463 12.8567 27.2822 12.0195C26.3181 11.1822 25.0106 10.7119 23.6472 10.7119ZM15.4221 17.8548V12.4976H23.6472C24.4652 12.4976 25.2498 12.7798 25.8282 13.2822C26.4066 13.7845 26.7316 14.4658 26.7316 15.1762V17.8548H15.4221Z" fill="#64748B"/>
</g>
</svg>
