<svg width="27" height="26" viewBox="0 0 27 26" fill="none" xmlns="http://www.w3.org/2000/svg">
<g id="Group">
<path id="Vector" d="M26 24.7504H1M1 11.0004L11.1575 2.87537C11.8224 2.34348 12.6485 2.05371 13.5 2.05371C14.3515 2.05371 15.1776 2.34348 15.8425 2.87537L26 11.0004" stroke="#F4A607" stroke-width="1.5" stroke-linecap="round"/>
<path id="Vector_2" opacity="0.5" d="M17.875 4.125V1.625C17.875 1.45924 17.9408 1.30027 18.0581 1.18306C18.1753 1.06585 18.3342 1 18.5 1H21.625C21.7908 1 21.9497 1.06585 22.0669 1.18306C22.1842 1.30027 22.25 1.45924 22.25 1.625V7.875" stroke="#F4A607" stroke-width="1.5" stroke-linecap="round"/>
<path id="Vector_3" d="M3.5 24.75V9.125M23.5 24.75V9.125" stroke="#F4A607" stroke-width="1.5" stroke-linecap="round"/>
<path id="Vector_4" opacity="0.5" d="M17.25 24.75V18.5C17.25 16.7325 17.25 15.8487 16.7 15.3C16.1525 14.75 15.2687 14.75 13.5 14.75C11.7325 14.75 10.8487 14.75 10.3 15.3C9.75 15.8475 9.75 16.7313 9.75 18.5V24.75M16 9.125C16 9.78804 15.7366 10.4239 15.2678 10.8928C14.7989 11.3616 14.163 11.625 13.5 11.625C12.837 11.625 12.2011 11.3616 11.7322 10.8928C11.2634 10.4239 11 9.78804 11 9.125C11 8.46196 11.2634 7.82607 11.7322 7.35723C12.2011 6.88839 12.837 6.625 13.5 6.625C14.163 6.625 14.7989 6.88839 15.2678 7.35723C15.7366 7.82607 16 8.46196 16 9.125Z" stroke="#F4A607" stroke-width="1.5"/>
</g>
</svg>
