<svg width="15" height="16" viewBox="0 0 15 16" fill="none" xmlns="http://www.w3.org/2000/svg">
<path d="M3.67969 13L7 7.17969H5.32031V3L2 9.25H3.67969V13ZM11.4141 6.08594C11.5703 6.24219 11.7656 6.32031 12 6.32031C12.2344 6.32031 12.4297 6.24219 12.5859 6.08594C12.7422 5.92969 12.8203 5.73438 12.8203 5.5C12.8203 5.26562 12.7422 5.07031 12.5859 4.91406C12.4297 4.75781 12.2344 4.67969 12 4.67969C11.7656 4.67969 11.5703 4.75781 11.4141 4.91406C11.2578 5.07031 11.1797 5.26562 11.1797 5.5C11.1797 5.73438 11.2578 5.92969 11.4141 6.08594ZM13.4844 4.01562C13.875 4.40625 14.0703 4.90104 14.0703 5.5V13.4297C14.0703 14.0026 13.862 14.4974 13.4453 14.9141C13.0547 15.3047 12.5729 15.5 12 15.5C11.4271 15.5 10.9323 15.3047 10.5156 14.9141C10.125 14.4974 9.92969 14.0026 9.92969 13.4297V9.25H8.67969V15.5H0.320312V2.17969C0.320312 1.73698 0.489583 1.34635 0.828125 1.00781C1.16667 0.669271 1.55729 0.5 2 0.5H7C7.44271 0.5 7.83333 0.669271 8.17188 1.00781C8.51042 1.34635 8.67969 1.73698 8.67969 2.17969V8H9.5C9.94271 8 10.3333 8.16927 10.6719 8.50781C11.0104 8.84635 11.1797 9.23698 11.1797 9.67969V13.4297C11.1797 13.6641 11.2578 13.8594 11.4141 14.0156C11.5703 14.1719 11.7656 14.25 12 14.25C12.2344 14.25 12.4297 14.1719 12.5859 14.0156C12.7422 13.8594 12.8203 13.6641 12.8203 13.4297V7.41406C12.5859 7.51823 12.3125 7.57031 12 7.57031C11.4271 7.57031 10.9323 7.375 10.5156 6.98438C10.125 6.56771 9.92969 6.07292 9.92969 5.5C9.92969 4.5625 10.3724 3.91146 11.2578 3.54688L9.5 1.78906L10.3984 0.929688L13.4844 4.01562Z" fill="#261E3B"/>
</svg>
