<svg width="14" height="16" viewBox="0 0 14 16" fill="none" xmlns="http://www.w3.org/2000/svg">
<path d="M13.0115 14.0469L11.9216 15.1367L9.28492 12.5H5.48805C4.87867 12.5 4.35133 12.2773 3.90602 11.832C3.46071 11.3867 3.23805 10.8594 3.23805 10.25V5.92578C3.23805 5.48047 3.40211 5.09375 3.73024 4.76562C4.0818 4.41406 4.48024 4.23828 4.92555 4.23828H4.96071C5.40602 4.23828 5.81617 4.42578 6.19117 4.80078L7.24586 5.96094C7.6443 6.40625 8.17164 6.76953 8.82789 7.05078C9.50758 7.33203 10.1521 7.47266 10.7615 7.47266V9.125C9.30836 9.125 7.92555 8.57422 6.61305 7.47266V10.25H9.21461L13.0115 14.0469ZM2.49977 10.9883C2.49977 11.5977 2.72242 12.125 3.16774 12.5703C3.61305 13.0156 4.14039 13.2383 4.74977 13.2383H9.24977V14.75H4.74977C3.71852 14.75 2.82789 14.3867 2.07789 13.6602C1.35133 12.9102 0.98805 12.0195 0.98805 10.9883V4.23828H2.49977V10.9883ZM4.74977 3.5C4.35133 3.5 3.99977 3.34766 3.69508 3.04297C3.39039 2.73828 3.23805 2.38672 3.23805 1.98828C3.23805 1.58984 3.39039 1.23828 3.69508 0.933594C3.99977 0.628906 4.35133 0.476562 4.74977 0.476562C5.14821 0.476562 5.49977 0.628906 5.80446 0.933594C6.10914 1.23828 6.26149 1.58984 6.26149 1.98828C6.26149 2.38672 6.10914 2.73828 5.80446 3.04297C5.49977 3.34766 5.14821 3.5 4.74977 3.5Z" fill="#64748B"/>
</svg>
