<svg width="22" height="22" viewBox="0 0 22 22" fill="none" xmlns="http://www.w3.org/2000/svg">
<path d="M20.7969 17.4023C20.9974 17.5169 21.0833 17.7174 21.0547 18.0039C21.0547 18.2617 20.9401 18.4909 20.7109 18.6914L18.6055 20.7969C18.1758 21.2266 17.7461 21.2266 17.3164 20.7969L8.98047 12.4609C7.94922 12.8906 6.84635 12.9909 5.67188 12.7617C4.52604 12.5039 3.52344 11.9453 2.66406 11.0859C1.7474 10.1693 1.17448 9.08073 0.945312 7.82031C0.716146 6.5599 0.888021 5.38542 1.46094 4.29688L5.5 8.25L8.25 5.5L4.29688 1.54688C5.38542 1.03125 6.5599 0.873698 7.82031 1.07422C9.08073 1.27474 10.1693 1.83333 11.0859 2.75C11.9453 3.60938 12.4896 4.6263 12.7188 5.80078C12.9766 6.94661 12.8906 8.03516 12.4609 9.06641L20.7969 17.4023Z" fill="#64748B"/>
</svg>
