<svg width="9" height="12" viewBox="0 0 9 12" fill="none" xmlns="http://www.w3.org/2000/svg">
<path d="M7.7064 10.8H2.7C1.8726 10.8 1.2 10.1274 1.2 9.3C1.2 8.4726 1.8726 7.8 2.7 7.8H6.9C8.058 7.8 9 6.858 9 5.7C9 4.542 8.058 3.6 6.9 3.6H3.9834C3.76305 4.03193 3.49018 4.43498 3.171 4.8H6.9C7.3962 4.8 7.8 5.2038 7.8 5.7C7.8 6.1962 7.3962 6.6 6.9 6.6H2.7C1.2114 6.6 0 7.8114 0 9.3C0 10.7886 1.2114 12 2.7 12H8.4558C8.16138 11.6297 7.90997 11.2271 7.7064 10.8ZM1.8 0C0.8076 0 0 0.8076 0 1.8C0 3.7128 1.8 4.8 1.8 4.8C1.8 4.8 3.6 3.7122 3.6 1.8C3.6 0.8076 2.7924 0 1.8 0ZM1.8 2.7C1.68177 2.69996 1.56471 2.67663 1.45549 2.63135C1.34628 2.58607 1.24705 2.51972 1.16348 2.4361C1.07991 2.35247 1.01362 2.2532 0.968417 2.14395C0.923209 2.03471 0.899961 1.91763 0.9 1.7994C0.900039 1.68117 0.923365 1.56411 0.968646 1.45489C1.01393 1.34568 1.08028 1.24645 1.1639 1.16288C1.24753 1.07931 1.3468 1.01302 1.45605 0.967816C1.56529 0.922608 1.68237 0.899361 1.8006 0.8994C2.03937 0.89948 2.26834 0.994409 2.43712 1.1633C2.6059 1.3322 2.70068 1.56123 2.7006 1.8C2.70052 2.03877 2.60559 2.26774 2.4367 2.43652C2.2678 2.6053 2.03877 2.70008 1.8 2.7Z" fill="#64748B"/>
</svg>
