<svg width="22" height="19" viewBox="0 0 22 19" fill="none" xmlns="http://www.w3.org/2000/svg">
<path d="M2.21886 15.532V14.8109C2.21886 14.4337 2.39637 14.0787 2.67373 13.9123C4.54866 12.7917 6.68986 12.2037 8.87544 12.2037C8.90872 12.2037 8.93091 12.2037 8.9642 12.2148C9.07514 11.4382 9.29703 10.6949 9.61876 10.0182C9.37469 9.99597 9.13061 9.98487 8.87544 9.98487C6.19062 9.98487 3.68331 10.7282 1.54211 12.004C0.56581 12.5809 0 13.6682 0 14.8109V17.7509H10.2733C9.80736 17.0852 9.44125 16.3308 9.19718 15.532H2.21886ZM8.87544 8.87544C11.3273 8.87544 13.3132 6.88956 13.3132 4.43772C13.3132 1.98588 11.3273 0 8.87544 0C6.4236 0 4.43772 1.98588 4.43772 4.43772C4.43772 6.88956 6.4236 8.87544 8.87544 8.87544ZM8.87544 2.21886C10.0958 2.21886 11.0943 3.21735 11.0943 4.43772C11.0943 5.65809 10.0958 6.65658 8.87544 6.65658C7.65507 6.65658 6.65658 5.65809 6.65658 4.43772C6.65658 3.21735 7.65507 2.21886 8.87544 2.21886ZM20.8018 13.3132C20.8018 13.0691 20.7685 12.8472 20.7353 12.6142L22 11.4937L20.8906 9.57438L19.2819 10.118C18.9269 9.81846 18.5275 9.58548 18.0837 9.41906L17.7509 7.76601H15.532L15.1992 9.41906C14.7554 9.58548 14.356 9.81846 14.001 10.118L12.3923 9.57438L11.2829 11.4937L12.5477 12.6142C12.5144 12.8472 12.4811 13.0691 12.4811 13.3132C12.4811 13.5572 12.5144 13.7791 12.5477 14.0121L11.2829 15.1326L12.3923 17.0519L14.001 16.5083C14.356 16.8079 14.7554 17.0408 15.1992 17.2073L15.532 18.8603H17.7509L18.0837 17.2073C18.5275 17.0408 18.9269 16.8079 19.2819 16.5083L20.8906 17.0519L22 15.1326L20.7353 14.0121C20.7685 13.7791 20.8018 13.5572 20.8018 13.3132ZM16.6415 15.532C15.4211 15.532 14.4226 14.5335 14.4226 13.3132C14.4226 12.0928 15.4211 11.0943 16.6415 11.0943C17.8618 11.0943 18.8603 12.0928 18.8603 13.3132C18.8603 14.5335 17.8618 15.532 16.6415 15.532Z" fill="#64748B"/>
</svg>
