<svg width="18" height="18" viewBox="0 0 18 18" fill="none" xmlns="http://www.w3.org/2000/svg">
<path d="M15.4023 0.75C15.8893 0.75 16.319 0.936198 16.6914 1.30859C17.0638 1.68099 17.25 2.11068 17.25 2.59766V8.09766H12.6523L13.5977 4.40234L9.90234 5.34766V0.75H15.4023ZM13.5977 13.5977L12.6523 9.90234H17.25V15.4023C17.25 15.8893 17.0638 16.319 16.6914 16.6914C16.319 17.0638 15.8893 17.25 15.4023 17.25H9.90234V12.6523L13.5977 13.5977ZM5.34766 9.90234L4.40234 13.5977L8.09766 12.6523V17.25H2.59766C2.11068 17.25 1.68099 17.0638 1.30859 16.6914C0.936198 16.319 0.75 15.8893 0.75 15.4023V9.90234H5.34766ZM0.75 2.59766C0.75 2.11068 0.936198 1.68099 1.30859 1.30859C1.68099 0.936198 2.11068 0.75 2.59766 0.75H8.09766V5.34766L4.40234 4.40234L5.34766 8.09766H0.75V2.59766Z" fill="#64748B"/>
</svg>
