<svg width="22" height="22" viewBox="0 0 22 22" fill="none" xmlns="http://www.w3.org/2000/svg">
<g id="vuesax/linear/bookmark">
<g id="bookmark">
<path id="Vector" d="M8.24967 20.1673H13.7497C18.333 20.1673 20.1663 18.334 20.1663 13.7507V8.25065C20.1663 3.66732 18.333 1.83398 13.7497 1.83398H8.24967C3.66634 1.83398 1.83301 3.66732 1.83301 8.25065V13.7507C1.83301 18.334 3.66634 20.1673 8.24967 20.1673Z" stroke="#64748B" stroke-width="1.5" stroke-linecap="round" stroke-linejoin="round"/>
<path id="Vector_2" d="M15.5837 2.23633V11.3847C15.5837 13.1905 14.2912 13.8963 12.7053 12.943L11.4953 12.2188C11.2203 12.0538 10.7803 12.0538 10.5053 12.2188L9.29533 12.943C7.70949 13.8872 6.41699 13.1905 6.41699 11.3847V2.23633" stroke="#64748B" stroke-width="1.5" stroke-linecap="round" stroke-linejoin="round"/>
<path id="Vector_3" d="M8.24967 20.1673H13.7497C18.333 20.1673 20.1663 18.334 20.1663 13.7507V8.25065C20.1663 3.66732 18.333 1.83398 13.7497 1.83398H8.24967C3.66634 1.83398 1.83301 3.66732 1.83301 8.25065V13.7507C1.83301 18.334 3.66634 20.1673 8.24967 20.1673Z" stroke="#64748B" stroke-width="1.5" stroke-linecap="round" stroke-linejoin="round"/>
<path id="Vector_4" d="M15.5837 2.23633V11.3847C15.5837 13.1905 14.2912 13.8963 12.7053 12.943L11.4953 12.2188C11.2203 12.0538 10.7803 12.0538 10.5053 12.2188L9.29533 12.943C7.70949 13.8872 6.41699 13.1905 6.41699 11.3847V2.23633" stroke="#64748B" stroke-width="1.5" stroke-linecap="round" stroke-linejoin="round"/>
</g>
</g>
</svg>
