<svg width="22" height="22" viewBox="0 0 22 22" fill="none" xmlns="http://www.w3.org/2000/svg">
<g id="vuesax/linear/buildings">
<g id="buildings">
<path id="Vector" d="M11.9166 20.1654H4.58325C2.74992 20.1654 1.83325 19.2487 1.83325 17.4154V10.082C1.83325 8.2487 2.74992 7.33203 4.58325 7.33203H9.16659V17.4154C9.16659 19.2487 10.0833 20.1654 11.9166 20.1654Z" stroke="#64748B" stroke-width="1.5" stroke-miterlimit="10" stroke-linecap="round" stroke-linejoin="round"/>
<path id="Vector_2" d="M9.2674 3.66797C9.19407 3.94297 9.16659 4.24547 9.16659 4.58464V7.33464H4.58325V5.5013C4.58325 4.49297 5.40825 3.66797 6.41659 3.66797H9.2674Z" stroke="#64748B" stroke-width="1.5" stroke-miterlimit="10" stroke-linecap="round" stroke-linejoin="round"/>
<path id="Vector_3" d="M12.8333 7.33203V11.9154" stroke="#64748B" stroke-width="1.5" stroke-miterlimit="10" stroke-linecap="round" stroke-linejoin="round"/>
<path id="Vector_4" d="M16.5 7.33203V11.9154" stroke="#64748B" stroke-width="1.5" stroke-miterlimit="10" stroke-linecap="round" stroke-linejoin="round"/>
<path id="Vector_5" d="M15.5833 15.582H13.7499C13.2458 15.582 12.8333 15.9945 12.8333 16.4987V20.1654H16.4999V16.4987C16.4999 15.9945 16.0874 15.582 15.5833 15.582Z" stroke="#64748B" stroke-width="1.5" stroke-miterlimit="10" stroke-linecap="round" stroke-linejoin="round"/>
<path id="Vector_6" d="M5.5 11.918V15.5846" stroke="#64748B" stroke-width="1.5" stroke-miterlimit="10" stroke-linecap="round" stroke-linejoin="round"/>
<path id="Vector_7" d="M9.16675 17.4154V4.58203C9.16675 2.7487 10.0834 1.83203 11.9167 1.83203H17.4167C19.2501 1.83203 20.1667 2.7487 20.1667 4.58203V17.4154C20.1667 19.2487 19.2501 20.1654 17.4167 20.1654H11.9167C10.0834 20.1654 9.16675 19.2487 9.16675 17.4154Z" stroke="#64748B" stroke-width="1.5" stroke-miterlimit="10" stroke-linecap="round" stroke-linejoin="round"/>
</g>
</g>
</svg>
