<svg width="20" height="20" viewBox="0 0 20 20" fill="none" xmlns="http://www.w3.org/2000/svg">
<path d="M15.2346 8.13335V10.75C15.2346 10.9167 15.2263 11.0833 15.2096 11.2417C15.0596 13.0083 14.018 13.8917 12.1013 13.8917H11.843C11.6763 13.8917 11.518 13.9667 11.4263 14.1L10.643 15.15C10.293 15.6167 9.73464 15.6167 9.38464 15.15L8.60131 14.1C8.51797 13.9917 8.32631 13.8917 8.18464 13.8917H7.92631C5.83464 13.8917 4.79297 13.375 4.79297 10.7583V8.14167C4.79297 6.225 5.6763 5.18335 7.44296 5.03335C7.6013 5.01668 7.76796 5.00835 7.93463 5.00835H12.1263C14.1846 5.00002 15.2346 6.05002 15.2346 8.13335Z" stroke="#64748B" stroke-width="1.5" stroke-miterlimit="10" stroke-linecap="round" stroke-linejoin="round"/>
<path d="M7.5013 18.3333H12.5013C16.668 18.3333 18.3346 16.6666 18.3346 12.5V7.49996C18.3346 3.33329 16.668 1.66663 12.5013 1.66663H7.5013C3.33464 1.66663 1.66797 3.33329 1.66797 7.49996V12.5C1.66797 16.6666 3.33464 18.3333 7.5013 18.3333Z" stroke="#64748B" stroke-width="1.5" stroke-linecap="round" stroke-linejoin="round"/>
</svg>
