<svg width="42" height="38" viewBox="0 0 42 38" fill="none" xmlns="http://www.w3.org/2000/svg">
<g id="Group 100">
<path id="Vector" d="M21.9537 12.0201C21.9537 11.7397 21.8334 11.4708 21.6193 11.2725C21.4051 11.0743 21.1147 10.9629 20.8118 10.9629C20.509 10.9629 20.2185 11.0743 20.0044 11.2725C19.7902 11.4708 19.6699 11.7397 19.6699 12.0201V24.7062C19.6699 24.9866 19.7902 25.2555 20.0044 25.4538C20.2185 25.652 20.509 25.7634 20.8118 25.7634C21.1147 25.7634 21.4051 25.652 21.6193 25.4538C21.8334 25.2555 21.9537 24.9866 21.9537 24.7062V12.0201Z" fill="#64748B"/>
<path id="Vector_2" d="M20.8118 29.9601C21.4425 29.9601 21.9537 29.4867 21.9537 28.9029C21.9537 28.319 21.4425 27.8457 20.8118 27.8457C20.1812 27.8457 19.6699 28.319 19.6699 28.9029C19.6699 29.4867 20.1812 29.9601 20.8118 29.9601Z" fill="#64748B"/>
<path id="Vector_3" d="M35.984 37.7778H5.70749C4.72881 37.7774 3.76664 37.5442 2.91335 37.1005C2.06006 36.6567 1.34431 36.0174 0.834786 35.2438C0.325266 34.4702 0.0390896 33.5883 0.00372861 32.6829C-0.0316324 31.7774 0.185009 30.8787 0.632857 30.0731L15.7723 2.86339C16.2527 2.00082 16.9803 1.27734 17.8755 0.772262C18.7706 0.267183 19.7986 0 20.8469 0C21.8952 0 22.9232 0.267183 23.8183 0.772262C24.7135 1.27734 25.4411 2.00082 25.9215 2.86339L41.061 30.0731C41.5089 30.8789 41.7255 31.7777 41.6901 32.6834C41.6546 33.589 41.3682 34.471 40.8584 35.2447C40.3486 36.0184 39.6326 36.6577 38.779 37.1013C37.9254 37.5449 36.9629 37.7778 35.984 37.7778ZM20.8469 2.11068C20.2161 2.10534 19.5963 2.26376 19.0578 2.56796C18.5193 2.87217 18.0837 3.30999 17.8003 3.83177L2.66317 31.0414C2.39469 31.5248 2.26488 32.0638 2.28618 32.607C2.30748 33.1501 2.47919 33.6791 2.78482 34.1431C3.09045 34.6071 3.51976 34.9906 4.03155 35.2568C4.54334 35.5231 5.12045 35.6631 5.70749 35.6634H35.984C36.5713 35.6634 37.1487 35.5237 37.6608 35.2576C38.1729 34.9915 38.6025 34.6081 38.9084 34.144C39.2143 33.6799 39.3862 33.1508 39.4076 32.6075C39.429 32.0642 39.2992 31.5249 39.0306 31.0414L23.8935 3.83177C23.6101 3.30999 23.1745 2.87217 22.636 2.56796C22.0975 2.26376 21.4777 2.10534 20.8469 2.11068Z" fill="#64748B"/>
</g>
</svg>
