<svg width="18" height="16" viewBox="0 0 18 16" fill="none" xmlns="http://www.w3.org/2000/svg">
<path d="M10.6797 3.82031V2.17969H7.32031V3.82031H10.6797ZM15.6797 3.82031C16.1224 3.82031 16.5 3.98958 16.8125 4.32812C17.151 4.66667 17.3203 5.05729 17.3203 5.5V8C17.3203 8.44271 17.151 8.83333 16.8125 9.17188C16.5 9.51042 16.1224 9.67969 15.6797 9.67969H10.6797V8H7.32031V9.67969H2.32031C1.85156 9.67969 1.46094 9.52344 1.14844 9.21094C0.835938 8.8724 0.679688 8.46875 0.679688 8V5.5C0.679688 5.05729 0.835938 4.66667 1.14844 4.32812C1.48698 3.98958 1.8776 3.82031 2.32031 3.82031H5.64062V2.17969L7.32031 0.5H10.6406L12.3203 2.17969V3.82031H15.6797ZM7.32031 11.3203H10.6797V10.5H16.5V13.8203C16.5 14.2891 16.3307 14.6927 15.9922 15.0312C15.6797 15.3438 15.2891 15.5 14.8203 15.5H3.17969C2.71094 15.5 2.30729 15.3438 1.96875 15.0312C1.65625 14.6927 1.5 14.2891 1.5 13.8203V10.5H7.32031V11.3203Z" fill="#261E3B"/>
</svg>
