<svg width="16" height="16" viewBox="0 0 16 16" fill="none" xmlns="http://www.w3.org/2000/svg">
<path d="M13.8203 7.17969V2.17969H2.17969V7.17969H3.82031V8.82031H5.5V10.5H7.17969V8.82031H8.82031V10.5H10.5V8.82031H12.1797V7.17969H13.8203ZM12.1797 13V11.3203H10.5V13H12.1797ZM8.82031 13V11.3203H7.17969V13H8.82031ZM5.5 13V11.3203H3.82031V13H5.5ZM13.8203 0.5C14.263 0.5 14.6536 0.669271 14.9922 1.00781C15.3307 1.34635 15.5 1.73698 15.5 2.17969V13.8203C15.5 14.263 15.3307 14.6536 14.9922 14.9922C14.6536 15.3307 14.263 15.5 13.8203 15.5H2.17969C1.73698 15.5 1.34635 15.3307 1.00781 14.9922C0.669271 14.6536 0.5 14.263 0.5 13.8203V2.17969C0.5 1.73698 0.669271 1.34635 1.00781 1.00781C1.34635 0.669271 1.73698 0.5 2.17969 0.5H13.8203ZM3.82031 5.5H5.5V7.17969H3.82031V5.5ZM10.5 5.5H12.1797V7.17969H10.5V5.5ZM7.17969 5.5H8.82031V7.17969H10.5V8.82031H8.82031V7.17969H7.17969V8.82031H5.5V7.17969H7.17969V5.5ZM12.1797 8.82031V10.5H13.8203V8.82031H12.1797ZM3.82031 8.82031H2.17969V10.5H3.82031V8.82031Z" fill="#261E3B"/>
</svg>
