<svg width="29" height="40" viewBox="0 0 29 40" fill="none" xmlns="http://www.w3.org/2000/svg">
<path d="M5.13379 0.87763L7.28781 0.189622C9.30384 -0.454386 11.4599 0.587626 12.3239 2.62365L14.0439 6.6797C14.7939 8.44572 14.3779 10.5237 13.0159 11.8158L9.22984 15.4118C9.46384 17.5638 10.1858 19.6819 11.3979 21.7659C12.5495 23.7823 14.094 25.5471 15.9399 26.9559L20.492 25.4359C22.216 24.8619 24.094 25.5239 25.152 27.0779L27.6161 30.698C28.8481 32.506 28.6261 34.998 27.1 36.53L25.464 38.1721C23.836 39.8061 21.512 40.4001 19.36 39.7281C14.2819 38.1441 9.61384 33.442 5.35379 25.6219C1.08774 17.7898 -0.416276 11.1417 0.837738 5.68569C1.36574 3.38966 3.00176 1.55964 5.13779 0.87763H5.13379Z" fill="#1E293B"/>
</svg>
