<svg width="32" height="32" viewBox="0 0 32 32" fill="none" xmlns="http://www.w3.org/2000/svg">
<path id="Vector" d="M30.2222 22.2222C28.0889 22.2222 25.7778 21.8667 23.8222 21.1556H23.2889C22.7556 21.1556 22.4 21.3333 22.0444 21.6889L18.1333 25.6C13.1556 22.9333 8.88889 18.8444 6.4 13.8667L10.3111 9.95556C10.8444 9.42222 11.0222 8.71111 10.6667 8.17778C10.1333 6.22222 9.77778 3.91111 9.77778 1.77778C9.77778 0.888889 8.88889 0 8 0H1.77778C0.888889 0 0 0.888889 0 1.77778C0 18.4889 13.5111 32 30.2222 32C31.1111 32 32 31.1111 32 30.2222V24C32 23.1111 31.1111 22.2222 30.2222 22.2222ZM3.55556 3.55556H6.22222C6.4 5.15556 6.75556 6.75556 7.11111 8.17778L4.97778 10.3111C4.26667 8.17778 3.73333 5.86667 3.55556 3.55556ZM28.4444 28.4444C26.1333 28.2667 23.8222 27.7333 21.6889 27.0222L23.8222 24.8889C25.2444 25.2444 26.8444 25.6 28.4444 25.6V28.4444Z" fill="#64748B"/>
</svg>
