<svg width="16" height="16" viewBox="0 0 16 16" fill="none" xmlns="http://www.w3.org/2000/svg">
<g id="Group 100">
<path id="Vector" d="M8.42329 3.876C8.42329 3.76384 8.37712 3.65629 8.29494 3.57698C8.21276 3.49768 8.1013 3.45312 7.98508 3.45312C7.86886 3.45312 7.7574 3.49768 7.67522 3.57698C7.59304 3.65629 7.54688 3.76384 7.54688 3.876V8.95045C7.54688 9.06261 7.59304 9.17017 7.67522 9.24947C7.7574 9.32877 7.86886 9.37333 7.98508 9.37333C8.1013 9.37333 8.21276 9.32877 8.29494 9.24947C8.37712 9.17017 8.42329 9.06261 8.42329 8.95045V3.876Z" fill="#BFCADA"/>
<path id="Vector_2" d="M7.98508 11.0528C8.2271 11.0528 8.42329 10.8634 8.42329 10.6299C8.42329 10.3964 8.2271 10.207 7.98508 10.207C7.74307 10.207 7.54688 10.3964 7.54688 10.6299C7.54688 10.8634 7.74307 11.0528 7.98508 11.0528Z" fill="#BFCADA"/>
<path id="Vector_3" d="M13.8089 15.1775H2.19025C1.81468 15.1774 1.44545 15.0841 1.118 14.9066C0.790549 14.7291 0.515878 14.4734 0.320349 14.1639C0.124821 13.8545 0.0150006 13.5017 0.00143085 13.1396C-0.0121389 12.7774 0.0709972 12.4179 0.242859 12.0956L6.05261 1.21176C6.23697 0.866734 6.51621 0.577342 6.85971 0.375311C7.20321 0.173279 7.59772 0.0664063 8 0.0664062C8.40228 0.0664062 8.79679 0.173279 9.14029 0.375311C9.4838 0.577342 9.76303 0.866734 9.94739 1.21176L15.7571 12.0956C15.929 12.4179 16.0122 12.7775 15.9986 13.1398C15.985 13.502 15.8751 13.8548 15.6794 14.1643C15.4838 14.4737 15.209 14.7295 14.8814 14.9069C14.5539 15.0843 14.1845 15.1775 13.8089 15.1775ZM8 0.910679C7.75793 0.908542 7.52008 0.971909 7.31343 1.09359C7.10679 1.21527 6.93961 1.3904 6.83086 1.59911L1.02199 12.483C0.918963 12.6763 0.869147 12.8919 0.877322 13.1092C0.885497 13.3264 0.951388 13.538 1.06868 13.7236C1.18596 13.9092 1.35071 14.0627 1.54711 14.1691C1.74351 14.2756 1.96497 14.3316 2.19025 14.3318H13.8089C14.0342 14.3318 14.2558 14.2759 14.4523 14.1695C14.6488 14.063 14.8137 13.9096 14.9311 13.724C15.0485 13.5384 15.1145 13.3267 15.1227 13.1094C15.1309 12.8921 15.0811 12.6764 14.978 12.483L9.16914 1.59911C9.06039 1.3904 8.89321 1.21527 8.68657 1.09359C8.47992 0.971909 8.24207 0.908542 8 0.910679Z" fill="#BFCADA"/>
</g>
</svg>
