<svg width="23" height="15" viewBox="0 0 23 15" fill="none" xmlns="http://www.w3.org/2000/svg">
<path d="M21.9907 8.2613C21.8256 6.4089 21.5538 6.04814 21.4511 5.91245C21.215 5.59891 20.8373 5.394 20.4376 5.17901C20.415 5.16706 20.3955 5.15002 20.3806 5.12923C20.3657 5.10844 20.3558 5.08448 20.3518 5.05923C20.3477 5.03398 20.3496 5.00814 20.3573 4.98374C20.3649 4.95934 20.3781 4.93706 20.3959 4.91864C20.4699 4.84357 20.5268 4.75336 20.5626 4.65421C20.5985 4.55506 20.6124 4.44932 20.6035 4.34426C20.5863 4.15798 20.4997 3.98497 20.3608 3.85956C20.222 3.73415 20.0411 3.66549 19.854 3.66721H19.1389C19.1083 3.66739 19.0777 3.66938 19.0473 3.67317C19.0264 3.66411 19.0048 3.6569 18.9826 3.65162C18.5591 2.75636 17.9792 1.5306 16.7773 0.932387C14.9945 0.0458399 11.7106 0 11.0688 0C10.427 0 7.14305 0.04584 5.36262 0.931012C4.16069 1.52922 3.58082 2.75499 3.15725 3.65025L3.15359 3.65758C3.13246 3.66055 3.11172 3.66578 3.0917 3.67317C3.06129 3.66938 3.03067 3.66739 3.00002 3.66721H2.28354C2.09646 3.66549 1.91557 3.73415 1.77675 3.85956C1.63792 3.98497 1.5513 4.15798 1.53406 4.34426C1.52591 4.44907 1.5405 4.55441 1.57681 4.65306C1.61313 4.75172 1.67031 4.84137 1.74446 4.91589C1.7622 4.93431 1.77542 4.95659 1.78307 4.98099C1.79072 5.00539 1.7926 5.03123 1.78856 5.05648C1.78451 5.08173 1.77465 5.10569 1.75976 5.12648C1.74487 5.14727 1.72535 5.16431 1.70275 5.17626C1.30302 5.39263 0.923467 5.59753 0.689224 5.9097C0.586543 6.04722 0.315169 6.40615 0.149687 8.25855C0.0580066 9.30095 0.0442545 10.38 0.116223 11.075C0.267037 12.5189 0.549871 13.3917 0.561789 13.4279C0.60519 13.5597 0.68508 13.6765 0.792185 13.7647C0.899291 13.8529 1.02922 13.9089 1.16688 13.9262V13.9354C1.16688 14.1299 1.24415 14.3165 1.3817 14.454C1.51925 14.5916 1.7058 14.6688 1.90032 14.6688H4.46736C4.66188 14.6688 4.84844 14.5916 4.98599 14.454C5.12353 14.3165 5.2008 14.1299 5.2008 13.9354C5.59549 13.9354 5.87007 13.8648 6.16115 13.7896C6.58141 13.6764 7.01097 13.601 7.44468 13.5645C8.84326 13.4311 10.234 13.3853 11.0688 13.3853C11.8866 13.3853 13.3388 13.4311 14.7397 13.5645C15.1751 13.6011 15.6063 13.6768 16.0282 13.7905C16.3069 13.862 16.5714 13.928 16.9377 13.9349C16.9377 14.1294 17.015 14.316 17.1525 14.4535C17.2901 14.5911 17.4766 14.6684 17.6711 14.6684H20.2382C20.4327 14.6684 20.6193 14.5911 20.7568 14.4535C20.8944 14.316 20.9716 14.1294 20.9716 13.9349V13.9294C21.1096 13.9124 21.2399 13.8566 21.3474 13.7683C21.4548 13.6801 21.535 13.5632 21.5785 13.4311C21.5905 13.3949 21.8733 12.5221 22.0241 11.0782C22.0961 10.3828 22.0832 9.30554 21.9907 8.2613ZM4.48295 4.27734C4.84967 3.49806 5.26911 2.61609 6.01584 2.24433C7.09492 1.70708 9.33145 1.46505 11.0688 1.46505C12.8061 1.46505 15.0427 1.70525 16.1217 2.24433C16.8685 2.61609 17.2861 3.49851 17.6546 4.27734L17.7005 4.37681C17.7273 4.43344 17.7391 4.49599 17.7349 4.5585C17.7307 4.62101 17.7105 4.68139 17.6763 4.73389C17.6421 4.78638 17.595 4.82924 17.5395 4.85837C17.4841 4.88751 17.4221 4.90194 17.3594 4.9003C15.8362 4.85905 12.6274 4.72703 11.0688 4.72703C9.51023 4.72703 6.30142 4.86226 4.77587 4.90351C4.71324 4.90515 4.65123 4.89072 4.59576 4.86158C4.54029 4.83245 4.49321 4.78959 4.45901 4.7371C4.42481 4.6846 4.40463 4.62422 4.4004 4.56171C4.39616 4.4992 4.40801 4.43665 4.43482 4.38002C4.45086 4.3461 4.46782 4.31172 4.48295 4.27734ZM5.02982 7.92758C4.24128 8.02249 3.4477 8.06933 2.65347 8.06785C2.16757 8.06785 1.66653 7.93033 1.57348 7.4976C1.50976 7.20652 1.51664 7.04287 1.55102 6.8783C1.5799 6.73849 1.62574 6.63673 1.85494 6.60097C2.45086 6.50929 2.78412 6.62435 3.75959 6.91177C4.4064 7.102 4.87305 7.3555 5.13892 7.55628C5.27232 7.65529 5.20126 7.91383 5.02982 7.92758ZM15.1779 11.6865C14.5746 11.7552 13.3681 11.73 11.0825 11.73C8.79696 11.73 7.59091 11.7552 6.98765 11.6865C6.36514 11.6173 5.57165 11.0287 6.11348 10.5043C6.47424 10.1586 7.31587 9.90008 8.43666 9.75477C9.55745 9.60946 10.0319 9.53474 11.078 9.53474C12.124 9.53474 12.5503 9.58058 13.7193 9.75523C14.8882 9.92988 15.7715 10.1916 16.0424 10.5047C16.5366 11.0658 15.7999 11.6136 15.1779 11.6892V11.6865ZM20.5641 7.49714C20.4724 7.93171 19.9682 8.06739 19.4841 8.06739C18.6747 8.06758 17.8659 8.02075 17.0619 7.92712C16.9217 7.91383 16.8566 7.66767 16.9987 7.55582C17.2604 7.35 17.7321 7.10154 18.378 6.91131C19.3535 6.62389 19.9159 6.50883 20.3991 6.60464C20.5169 6.62802 20.5792 6.75454 20.5866 6.83384C20.6189 7.05465 20.6113 7.27948 20.5641 7.4976V7.49714Z" fill="#64748B"/>
</svg>
