<svg width="15" height="18" viewBox="0 0 15 18" fill="none" xmlns="http://www.w3.org/2000/svg">
<path d="M6.3 14.4H7.2L10.8 9H8.1V5.4H7.2L3.6 10.8H6.3V14.4ZM7.2 18C5.145 18 3.4311 17.295 2.0583 15.885C0.685501 14.475 -0.000599607 12.72 3.93185e-07 10.62C3.93185e-07 9.12 0.5964 7.4886 1.7892 5.7258C2.982 3.963 4.7856 2.0544 7.2 0C9.615 2.055 11.4189 3.9639 12.6117 5.7267C13.8045 7.4895 14.4006 9.1206 14.4 10.62C14.4 12.72 13.7136 14.475 12.3408 15.885C10.968 17.295 9.2544 18 7.2 18ZM7.2 16.2C8.76 16.2 10.05 15.6711 11.07 14.6133C12.09 13.5555 12.6 12.2244 12.6 10.62C12.6 9.525 12.1461 8.2875 11.2383 6.9075C10.3305 5.5275 8.9844 4.02 7.2 2.385C5.415 4.02 4.0689 5.5275 3.1617 6.9075C2.2545 8.2875 1.8006 9.525 1.8 10.62C1.8 12.225 2.31 13.5564 3.33 14.6142C4.35 15.672 5.64 16.2006 7.2 16.2Z" fill="#64748B"/>
</svg>
