<svg width="43" height="42" viewBox="0 0 43 42" fill="none" xmlns="http://www.w3.org/2000/svg">
<g id="Group">
<path id="Vector" d="M18.4319 41.0006C20.1321 41.0006 21.5103 39.6223 21.5103 37.9222C21.5103 36.222 20.1321 34.8438 18.4319 34.8438C16.7318 34.8438 15.3535 36.222 15.3535 37.9222C15.3535 39.6223 16.7318 41.0006 18.4319 41.0006Z" stroke="#64748B" stroke-width="2" stroke-linecap="round" stroke-linejoin="round"/>
<path id="Vector_2" d="M32.2835 41.0006C33.9836 41.0006 35.3619 39.6223 35.3619 37.9222C35.3619 36.222 33.9836 34.8438 32.2835 34.8438C30.5833 34.8438 29.2051 36.222 29.2051 37.9222C29.2051 39.6223 30.5833 41.0006 32.2835 41.0006Z" stroke="#64748B" stroke-width="2" stroke-linecap="round" stroke-linejoin="round"/>
<path id="Vector_3" d="M25.7626 10.3391C25.2902 8.44134 24.3725 6.68344 23.0857 5.21087C21.7988 3.7383 20.1797 2.59341 18.3624 1.87098C16.5451 1.14856 14.5819 0.869364 12.6352 1.05652C10.6885 1.24368 8.81446 1.8918 7.16809 2.94723C5.52171 4.00267 4.1504 5.43506 3.16766 7.12584C2.18493 8.81661 1.61903 10.7171 1.51683 12.6701C1.41462 14.6231 1.77905 16.5723 2.57993 18.3564C3.38082 20.1405 4.59513 21.7082 6.12234 22.9297M13.8184 13.3559L18.436 8.73828M19.9752 28.7172V25.6387H15.3576C13.7247 25.6387 12.1587 26.2874 11.004 27.442C9.84941 28.5967 9.20075 30.1627 9.20075 31.7956V37.9524" stroke="#64748B" stroke-width="2" stroke-linecap="round" stroke-linejoin="round"/>
<path id="Vector_4" d="M41.5196 37.9236V22.5315C41.5196 21.7151 41.1952 20.9321 40.6179 20.3548C40.0406 19.7775 39.2576 19.4531 38.4412 19.4531H23.0491C22.2327 19.4531 21.4497 19.7775 20.8723 20.3548C20.295 20.9321 19.9707 21.7151 19.9707 22.5315V28.6883" stroke="#64748B" stroke-width="2" stroke-linecap="round" stroke-linejoin="round"/>
</g>
</svg>
