<svg width="15" height="11" viewBox="0 0 15 11" fill="none" xmlns="http://www.w3.org/2000/svg">
<path d="M7.5 1.86364C8.75368 1.85947 9.9831 2.20917 11.0469 2.87254C12.1107 3.53591 12.9657 4.48602 13.5136 5.61364C12.3886 7.91136 10.0909 9.36364 7.5 9.36364C4.90909 9.36364 2.61136 7.91136 1.48636 5.61364C2.03428 4.48602 2.8893 3.53591 3.9531 2.87254C5.0169 2.20917 6.24632 1.85947 7.5 1.86364ZM7.5 0.5C4.09091 0.5 1.17955 2.62045 0 5.61364C1.17955 8.60682 4.09091 10.7273 7.5 10.7273C10.9091 10.7273 13.8205 8.60682 15 5.61364C13.8205 2.62045 10.9091 0.5 7.5 0.5ZM7.5 3.90909C7.95207 3.90909 8.38563 4.08868 8.7053 4.40834C9.02496 4.728 9.20455 5.16156 9.20455 5.61364C9.20455 6.06571 9.02496 6.49927 8.7053 6.81893C8.38563 7.1386 7.95207 7.31818 7.5 7.31818C7.04793 7.31818 6.61437 7.1386 6.2947 6.81893C5.97504 6.49927 5.79545 6.06571 5.79545 5.61364C5.79545 5.16156 5.97504 4.728 6.2947 4.40834C6.61437 4.08868 7.04793 3.90909 7.5 3.90909ZM7.5 2.54545C5.80909 2.54545 4.43182 3.92273 4.43182 5.61364C4.43182 7.30455 5.80909 8.68182 7.5 8.68182C9.19091 8.68182 10.5682 7.30455 10.5682 5.61364C10.5682 3.92273 9.19091 2.54545 7.5 2.54545Z" fill="#64748B"/>
</svg>
