<svg width="25" height="25" viewBox="0 0 25 25" fill="none" xmlns="http://www.w3.org/2000/svg">
<g id="Wheel">
<path id="Vector" d="M12.5 15.3846C12.2147 15.3846 11.9359 15.3 11.6987 15.1415C11.4615 14.9831 11.2766 14.7578 11.1675 14.4943C11.0583 14.2307 11.0298 13.9407 11.0854 13.6609C11.1411 13.3811 11.2784 13.1242 11.4801 12.9224C11.6818 12.7207 11.9388 12.5834 12.2186 12.5277C12.4984 12.4721 12.7884 12.5006 13.0519 12.6098C13.3155 12.719 13.5408 12.9038 13.6992 13.141C13.8577 13.3782 13.9423 13.657 13.9423 13.9423C13.9423 14.3248 13.7904 14.6917 13.5199 14.9622C13.2494 15.2327 12.8825 15.3846 12.5 15.3846ZM25 12.5C25 14.9723 24.2669 17.389 22.8934 19.4446C21.5199 21.5002 19.5676 23.1024 17.2835 24.0485C14.9995 24.9946 12.4861 25.2421 10.0614 24.7598C7.63661 24.2775 5.40933 23.087 3.66117 21.3388C1.91301 19.5907 0.722505 17.3634 0.24019 14.9386C-0.242126 12.5139 0.00541606 10.0005 0.951511 7.71645C1.89761 5.43238 3.49976 3.48015 5.55538 2.10663C7.61099 0.733112 10.0277 0 12.5 0C15.8141 0.00349978 18.9915 1.32158 21.335 3.66503C23.6784 6.00848 24.9965 9.18587 25 12.5ZM1.92308 12.5V12.5397C4.87636 10.0311 8.62511 8.65385 12.5 8.65385C16.3749 8.65385 20.1236 10.0311 23.0769 12.5397V12.5C23.0769 9.69482 21.9626 7.00454 19.979 5.02099C17.9955 3.03743 15.3052 1.92308 12.5 1.92308C9.69483 1.92308 7.00455 3.03743 5.02099 5.02099C3.03743 7.00454 1.92308 9.69482 1.92308 12.5ZM10.0361 22.7861L7.98678 17.3077H3.08053C3.77749 18.6675 4.7597 19.8609 5.9601 20.8064C7.16049 21.7518 8.5508 22.4271 10.0361 22.7861ZM12.5 23.0769H12.7993L15.2115 16.6382C15.35 16.2718 15.5966 15.9561 15.9186 15.7331C16.2405 15.5101 16.6227 15.3902 17.0144 15.3894H22.6779C22.7236 15.232 22.7644 15.0721 22.7981 14.9086C21.4552 13.5386 19.8525 12.4502 18.0839 11.7071C16.3152 10.9641 14.416 10.5814 12.4976 10.5814C10.5792 10.5814 8.68003 10.9641 6.91134 11.7071C5.14265 12.4502 3.53997 13.5386 2.19712 14.9086C2.23438 15.0697 2.27525 15.2296 2.31731 15.3894H7.98678C8.37858 15.3905 8.7608 15.5106 9.08277 15.7338C9.40475 15.9571 9.65127 16.2729 9.78967 16.6394L12.1935 23.0769H12.5ZM21.9195 17.3077H17.0132L14.9591 22.7873C16.4454 22.4289 17.8368 21.7537 19.038 20.808C20.2393 19.8623 21.2222 18.6683 21.9195 17.3077Z" fill="#64748B"/>
</g>
</svg>
