<svg width="18" height="17" viewBox="0 0 18 17" fill="none" xmlns="http://www.w3.org/2000/svg">
<path d="M3.10156 2.92188C4.74219 1.30729 6.70833 0.5 9 0.5C11.2917 0.5 13.2448 1.30729 14.8594 2.92188C16.5 4.53646 17.3203 6.5026 17.3203 8.82031C17.3203 10.3307 16.9427 11.737 16.1875 13.0391C15.4583 14.3151 14.4557 15.3177 13.1797 16.0469L12.3203 14.6016C13.3359 14.0026 14.1432 13.1953 14.7422 12.1797C15.3672 11.138 15.6797 10.0182 15.6797 8.82031C15.6797 6.9974 15.0286 5.4349 13.7266 4.13281C12.4245 2.83073 10.849 2.17969 9 2.17969C7.15104 2.17969 5.57552 2.83073 4.27344 4.13281C2.97135 5.4349 2.32031 6.9974 2.32031 8.82031C2.32031 10.0443 2.61979 11.1641 3.21875 12.1797C3.81771 13.1953 4.625 14.0026 5.64062 14.6016L4.82031 16.0469C3.54427 15.3177 2.52865 14.3151 1.77344 13.0391C1.04427 11.737 0.679688 10.3307 0.679688 8.82031C0.679688 6.5026 1.48698 4.53646 3.10156 2.92188ZM14 8.82031C14 9.73177 13.7656 10.5781 13.2969 11.3594C12.8542 12.1146 12.2552 12.7135 11.5 13.1562L10.6797 11.7109C11.7734 11.0599 12.3203 10.0964 12.3203 8.82031C12.3203 7.90885 11.9948 7.1276 11.3438 6.47656C10.6927 5.82552 9.91146 5.5 9 5.5C8.08854 5.5 7.30729 5.82552 6.65625 6.47656C6.00521 7.1276 5.67969 7.90885 5.67969 8.82031C5.67969 10.0964 6.22656 11.0599 7.32031 11.7109L6.5 13.1562C5.74479 12.7135 5.13281 12.1146 4.66406 11.3594C4.22135 10.5781 4 9.73177 4 8.82031C4 7.4401 4.48177 6.26823 5.44531 5.30469C6.4349 4.3151 7.61979 3.82031 9 3.82031C10.3802 3.82031 11.5521 4.3151 12.5156 5.30469C13.5052 6.26823 14 7.4401 14 8.82031ZM7.82812 7.6875C8.16667 7.34896 8.55729 7.17969 9 7.17969C9.44271 7.17969 9.83333 7.34896 10.1719 7.6875C10.5104 8 10.6797 8.3776 10.6797 8.82031C10.6797 9.26302 10.5104 9.65365 10.1719 9.99219C9.83333 10.3307 9.44271 10.5 9 10.5C8.55729 10.5 8.16667 10.3307 7.82812 9.99219C7.48958 9.65365 7.32031 9.26302 7.32031 8.82031C7.32031 8.3776 7.48958 8 7.82812 7.6875Z" fill="#261E3B"/>
</svg>
