<svg width="48" height="47" viewBox="0 0 48 47" fill="none" xmlns="http://www.w3.org/2000/svg">
<g id="Group">
<path id="Vector" d="M1 9.99979C1 7.61289 1.94819 5.32376 3.63598 3.63598C5.32376 1.94819 7.61289 1 9.99979 1H36.9991C39.386 1 41.6752 1.94819 43.3629 3.63598C45.0507 5.32376 45.9989 7.61289 45.9989 9.99979V36.9991C45.9989 39.386 45.0507 41.6752 43.3629 43.3629C41.6752 45.0507 39.386 45.9989 36.9991 45.9989H9.99979C7.61289 45.9989 5.32376 45.0507 3.63598 43.3629C1.94819 41.6752 1 39.386 1 36.9991V9.99979Z" stroke="#64748B" stroke-width="2" stroke-linecap="round" stroke-linejoin="round"/>
<path id="Vector_2" d="M15.6268 21.2497C18.7333 21.2497 21.2517 18.7314 21.2517 15.6249C21.2517 12.5183 18.7333 10 15.6268 10C12.5203 10 10.002 12.5183 10.002 15.6249C10.002 18.7314 12.5203 21.2497 15.6268 21.2497Z" stroke="#64748B" stroke-width="2" stroke-linecap="round" stroke-linejoin="round"/>
<path id="Vector_3" d="M29.185 24.8984L10.002 46.0006H37.3006C39.6081 46.0006 41.8211 45.084 43.4528 43.4523C45.0844 41.8206 46.0011 39.6076 46.0011 37.3001V37.0008C46.0011 35.9524 45.6074 35.5496 44.8986 34.7734L35.8313 24.8849C35.4087 24.4239 34.8947 24.0561 34.322 23.8048C33.7493 23.5536 33.1306 23.4245 32.5052 23.4258C31.8798 23.4271 31.2616 23.5587 30.6899 23.8122C30.1183 24.0658 29.6057 24.4357 29.185 24.8984Z" stroke="#64748B" stroke-width="2" stroke-linecap="round" stroke-linejoin="round"/>
</g>
</svg>
