<svg width="18" height="18" viewBox="0 0 18 18" fill="none" xmlns="http://www.w3.org/2000/svg">
<path id="Vector" d="M12.5014 11.4702H11.7114L11.4314 11.2002C12.0564 10.4742 12.5131 9.61896 12.769 8.6958C13.0248 7.77264 13.0735 6.80434 12.9114 5.86019C12.4414 3.08019 10.1214 0.86019 7.32144 0.52019C6.33706 0.395655 5.33723 0.497961 4.39846 0.819279C3.4597 1.1406 2.60688 1.67241 1.90527 2.37402C1.20366 3.07563 0.671846 3.92845 0.350529 4.86721C0.0292113 5.80598 -0.0730946 6.80581 0.0514397 7.79019C0.39144 10.5902 2.61144 12.9102 5.39144 13.3802C6.33559 13.5422 7.30389 13.4936 8.22705 13.2377C9.15021 12.9819 10.0054 12.5251 10.7314 11.9002L11.0014 12.1802V12.9702L15.2514 17.2202C15.6614 17.6302 16.3314 17.6302 16.7414 17.2202C17.1514 16.8102 17.1514 16.1402 16.7414 15.7302L12.5014 11.4702ZM6.50144 11.4702C4.01144 11.4702 2.00144 9.46019 2.00144 6.97019C2.00144 4.48019 4.01144 2.47019 6.50144 2.47019C8.99144 2.47019 11.0014 4.48019 11.0014 6.97019C11.0014 9.46019 8.99144 11.4702 6.50144 11.4702Z" fill="#64748B"/>
</svg>
