<svg width="16" height="16" viewBox="0 0 16 16" fill="none" xmlns="http://www.w3.org/2000/svg">
<mask id="path-1-inside-1_1661_46105" fill="white">
<path d="M9.32456 0C9.44482 3.78965e-06 9.56198 0.0381756 9.65916 0.109018C9.75634 0.179861 9.82853 0.279718 9.86532 0.394209L10.4902 2.33572C10.7526 2.46409 11.0036 2.60837 11.2434 2.77082L13.2383 2.3414C13.3559 2.31629 13.4784 2.32916 13.5883 2.37815C13.6981 2.42715 13.7896 2.50975 13.8495 2.61405L15.424 5.33943C15.4841 5.44367 15.5096 5.56431 15.4967 5.68396C15.4839 5.80361 15.4334 5.91608 15.3524 6.00516L13.9835 7.5161C14.0034 7.80583 14.0034 8.09659 13.9835 8.38632L15.3524 9.89954C15.4334 9.98861 15.4839 10.1011 15.4967 10.2207C15.5096 10.3404 15.4841 10.461 15.424 10.5653L13.8495 13.2918C13.7894 13.3959 13.6979 13.4782 13.588 13.527C13.4782 13.5758 13.3558 13.5885 13.2383 13.5633L11.2434 13.1339C11.0048 13.2952 10.7526 13.4406 10.4913 13.569L9.86532 15.5105C9.82853 15.625 9.75634 15.7248 9.65916 15.7957C9.56198 15.8665 9.44482 15.9047 9.32456 15.9047H6.17544C6.05518 15.9047 5.93802 15.8665 5.84084 15.7957C5.74366 15.7248 5.67147 15.625 5.63468 15.5105L5.01098 13.5701C4.74926 13.4421 4.49682 13.296 4.25551 13.1327L2.26174 13.5633C2.14412 13.5884 2.02157 13.5755 1.91173 13.5265C1.80189 13.4775 1.71044 13.3949 1.65055 13.2906L0.0759854 10.5653C0.0158594 10.461 -0.00960809 10.3404 0.00325506 10.2207C0.0161182 10.1011 0.0666473 9.98861 0.147556 9.89954L1.5165 8.38632C1.49667 8.09734 1.49667 7.80735 1.5165 7.51838L0.147556 6.00516C0.0666473 5.91608 0.0161182 5.80361 0.00325506 5.68396C-0.00960809 5.56431 0.0158594 5.44367 0.0759854 5.33943L1.65055 2.61291C1.71061 2.50882 1.80213 2.42646 1.91195 2.37767C2.02178 2.32888 2.14425 2.31618 2.26174 2.3414L4.25551 2.77196C4.49635 2.60951 4.74856 2.46296 5.01098 2.33458L5.63581 0.394209C5.67249 0.280087 5.74433 0.180494 5.84106 0.109686C5.93778 0.0388772 6.05443 0.000483579 6.1743 0H9.32343H9.32456ZM8.90877 1.13605H6.59123L5.94595 3.14345L5.51085 3.35589C5.29695 3.46056 5.09046 3.57975 4.89284 3.71261L4.49067 3.98526L2.42761 3.53993L1.26884 5.54847L2.68322 7.11394L2.64914 7.59563C2.63281 7.83316 2.63281 8.07153 2.64914 8.30907L2.68322 8.79075L1.26657 10.3562L2.42647 12.3648L4.48954 11.9206L4.8917 12.1921C5.08933 12.3249 5.29581 12.4441 5.50971 12.5488L5.94482 12.7612L6.59123 14.7686H8.91104L9.55859 12.7601L9.99256 12.5488C10.2062 12.4444 10.4124 12.3252 10.6094 12.1921L11.0105 11.9206L13.0747 12.3648L14.2334 10.3562L12.8179 8.79075L12.852 8.30907C12.8684 8.07116 12.8684 7.8324 12.852 7.59449L12.8179 7.11281L14.2346 5.54847L13.0747 3.53993L11.0105 3.98299L10.6094 3.71261C10.4124 3.57948 10.2062 3.46028 9.99256 3.35589L9.55859 3.14458L8.90991 1.13605H8.90877ZM7.75 4.5442C8.6539 4.5442 9.52077 4.90327 10.1599 5.54242C10.7991 6.18157 11.1581 7.04845 11.1581 7.95235C11.1581 8.85624 10.7991 9.72312 10.1599 10.3623C9.52077 11.0014 8.6539 11.3605 7.75 11.3605C6.8461 11.3605 5.97923 11.0014 5.34008 10.3623C4.70092 9.72312 4.34185 8.85624 4.34185 7.95235C4.34185 7.04845 4.70092 6.18157 5.34008 5.54242C5.97923 4.90327 6.8461 4.5442 7.75 4.5442ZM7.75 5.68025C7.1474 5.68025 6.56948 5.91963 6.14338 6.34573C5.71728 6.77183 5.4779 7.34975 5.4779 7.95235C5.4779 8.55494 5.71728 9.13286 6.14338 9.55896C6.56948 9.98506 7.1474 10.2244 7.75 10.2244C8.3526 10.2244 8.93052 9.98506 9.35662 9.55896C9.78272 9.13286 10.0221 8.55494 10.0221 7.95235C10.0221 7.34975 9.78272 6.77183 9.35662 6.34573C8.93052 5.91963 8.3526 5.68025 7.75 5.68025Z"/>
</mask>
<path d="M9.32456 0C9.44482 3.78965e-06 9.56198 0.0381756 9.65916 0.109018C9.75634 0.179861 9.82853 0.279718 9.86532 0.394209L10.4902 2.33572C10.7526 2.46409 11.0036 2.60837 11.2434 2.77082L13.2383 2.3414C13.3559 2.31629 13.4784 2.32916 13.5883 2.37815C13.6981 2.42715 13.7896 2.50975 13.8495 2.61405L15.424 5.33943C15.4841 5.44367 15.5096 5.56431 15.4967 5.68396C15.4839 5.80361 15.4334 5.91608 15.3524 6.00516L13.9835 7.5161C14.0034 7.80583 14.0034 8.09659 13.9835 8.38632L15.3524 9.89954C15.4334 9.98861 15.4839 10.1011 15.4967 10.2207C15.5096 10.3404 15.4841 10.461 15.424 10.5653L13.8495 13.2918C13.7894 13.3959 13.6979 13.4782 13.588 13.527C13.4782 13.5758 13.3558 13.5885 13.2383 13.5633L11.2434 13.1339C11.0048 13.2952 10.7526 13.4406 10.4913 13.569L9.86532 15.5105C9.82853 15.625 9.75634 15.7248 9.65916 15.7957C9.56198 15.8665 9.44482 15.9047 9.32456 15.9047H6.17544C6.05518 15.9047 5.93802 15.8665 5.84084 15.7957C5.74366 15.7248 5.67147 15.625 5.63468 15.5105L5.01098 13.5701C4.74926 13.4421 4.49682 13.296 4.25551 13.1327L2.26174 13.5633C2.14412 13.5884 2.02157 13.5755 1.91173 13.5265C1.80189 13.4775 1.71044 13.3949 1.65055 13.2906L0.0759854 10.5653C0.0158594 10.461 -0.00960809 10.3404 0.00325506 10.2207C0.0161182 10.1011 0.0666473 9.98861 0.147556 9.89954L1.5165 8.38632C1.49667 8.09734 1.49667 7.80735 1.5165 7.51838L0.147556 6.00516C0.0666473 5.91608 0.0161182 5.80361 0.00325506 5.68396C-0.00960809 5.56431 0.0158594 5.44367 0.0759854 5.33943L1.65055 2.61291C1.71061 2.50882 1.80213 2.42646 1.91195 2.37767C2.02178 2.32888 2.14425 2.31618 2.26174 2.3414L4.25551 2.77196C4.49635 2.60951 4.74856 2.46296 5.01098 2.33458L5.63581 0.394209C5.67249 0.280087 5.74433 0.180494 5.84106 0.109686C5.93778 0.0388772 6.05443 0.000483579 6.1743 0H9.32343H9.32456ZM8.90877 1.13605H6.59123L5.94595 3.14345L5.51085 3.35589C5.29695 3.46056 5.09046 3.57975 4.89284 3.71261L4.49067 3.98526L2.42761 3.53993L1.26884 5.54847L2.68322 7.11394L2.64914 7.59563C2.63281 7.83316 2.63281 8.07153 2.64914 8.30907L2.68322 8.79075L1.26657 10.3562L2.42647 12.3648L4.48954 11.9206L4.8917 12.1921C5.08933 12.3249 5.29581 12.4441 5.50971 12.5488L5.94482 12.7612L6.59123 14.7686H8.91104L9.55859 12.7601L9.99256 12.5488C10.2062 12.4444 10.4124 12.3252 10.6094 12.1921L11.0105 11.9206L13.0747 12.3648L14.2334 10.3562L12.8179 8.79075L12.852 8.30907C12.8684 8.07116 12.8684 7.8324 12.852 7.59449L12.8179 7.11281L14.2346 5.54847L13.0747 3.53993L11.0105 3.98299L10.6094 3.71261C10.4124 3.57948 10.2062 3.46028 9.99256 3.35589L9.55859 3.14458L8.90991 1.13605H8.90877ZM7.75 4.5442C8.6539 4.5442 9.52077 4.90327 10.1599 5.54242C10.7991 6.18157 11.1581 7.04845 11.1581 7.95235C11.1581 8.85624 10.7991 9.72312 10.1599 10.3623C9.52077 11.0014 8.6539 11.3605 7.75 11.3605C6.8461 11.3605 5.97923 11.0014 5.34008 10.3623C4.70092 9.72312 4.34185 8.85624 4.34185 7.95235C4.34185 7.04845 4.70092 6.18157 5.34008 5.54242C5.97923 4.90327 6.8461 4.5442 7.75 4.5442ZM7.75 5.68025C7.1474 5.68025 6.56948 5.91963 6.14338 6.34573C5.71728 6.77183 5.4779 7.34975 5.4779 7.95235C5.4779 8.55494 5.71728 9.13286 6.14338 9.55896C6.56948 9.98506 7.1474 10.2244 7.75 10.2244C8.3526 10.2244 8.93052 9.98506 9.35662 9.55896C9.78272 9.13286 10.0221 8.55494 10.0221 7.95235C10.0221 7.34975 9.78272 6.77183 9.35662 6.34573C8.93052 5.91963 8.3526 5.68025 7.75 5.68025Z" fill="#1E293B" stroke="white" stroke-width="0.2" mask="url(#path-1-inside-1_1661_46105)"/>
</svg>
