<svg width="17" height="16" viewBox="0 0 17 16" fill="none" xmlns="http://www.w3.org/2000/svg">
<path d="M1 13.1875C1 12.1929 1.39509 11.2391 2.09835 10.5358C2.80161 9.83259 3.75544 9.4375 4.75 9.4375H12.25C13.2446 9.4375 14.1984 9.83259 14.9016 10.5358C15.6049 11.2391 16 12.1929 16 13.1875C16 13.6848 15.8025 14.1617 15.4508 14.5133C15.0992 14.865 14.6223 15.0625 14.125 15.0625H2.875C2.37772 15.0625 1.90081 14.865 1.54917 14.5133C1.19754 14.1617 1 13.6848 1 13.1875Z" stroke="#1E293B" stroke-linejoin="round"/>
<path d="M8.5 6.625C10.0533 6.625 11.3125 5.3658 11.3125 3.8125C11.3125 2.2592 10.0533 1 8.5 1C6.9467 1 5.6875 2.2592 5.6875 3.8125C5.6875 5.3658 6.9467 6.625 8.5 6.625Z" stroke="#1E293B"/>
</svg>
