<svg width="25" height="24" viewBox="0 0 25 24" fill="none" xmlns="http://www.w3.org/2000/svg">
<g id="Group 86">
<path id="Vector" d="M4.4654 1.78571V21.4286H20.5368V1.78571H4.4654ZM3.57254 0H21.4297C21.6665 0 21.8936 0.0940686 22.061 0.261512C22.2285 0.428955 22.3225 0.656057 22.3225 0.892857V22.3214C22.3225 22.5582 22.2285 22.7853 22.061 22.9528C21.8936 23.1202 21.6665 23.2143 21.4297 23.2143H3.57254C3.33574 23.2143 3.10864 23.1202 2.9412 22.9528C2.77376 22.7853 2.67969 22.5582 2.67969 22.3214V0.892857C2.67969 0.656057 2.77376 0.428955 2.9412 0.261512C3.10864 0.0940686 3.33574 0 3.57254 0Z" fill="#64748B"/>
<path id="Vector_2" d="M0 21.4284H25V23.2141H0V21.4284ZM7.14286 3.57129H10.7143V6.24986H7.14286V3.57129Z" fill="#64748B"/>
<path id="Vector_3" d="M8.92634 21.4284H16.0692V19.6427C16.0692 18.6955 15.6929 17.7871 15.0231 17.1173C14.3534 16.4476 13.445 16.0713 12.4978 16.0713C11.5506 16.0713 10.6422 16.4476 9.97239 17.1173C9.30261 17.7871 8.92634 18.6955 8.92634 19.6427V21.4284ZM12.4978 14.2856C13.9186 14.2856 15.2812 14.85 16.2858 15.8546C17.2905 16.8593 17.8549 18.2219 17.8549 19.6427V23.2141H7.14062V19.6427C7.14062 18.2219 7.70504 16.8593 8.7097 15.8546C9.71436 14.85 11.077 14.2856 12.4978 14.2856ZM7.14062 8.92843H10.7121V11.607H7.14062V8.92843ZM14.2835 3.57129H17.8549V6.24986H14.2835V3.57129ZM14.2835 8.92843H17.8549V11.607H14.2835V8.92843Z" fill="#64748B"/>
</g>
</svg>
