<svg width="16" height="20" viewBox="0 0 16 20" fill="none" xmlns="http://www.w3.org/2000/svg">
<path d="M2.17969 10.8203H13.8203L12.5703 7.07031H3.42969L2.17969 10.8203ZM11.6719 14.6484C11.9323 14.8828 12.2318 15 12.5703 15C12.9089 15 13.1953 14.8828 13.4297 14.6484C13.6901 14.4141 13.8203 14.1146 13.8203 13.75C13.8203 13.3854 13.6901 13.0859 13.4297 12.8516C13.1953 12.6172 12.9089 12.5 12.5703 12.5C12.2318 12.5 11.9323 12.6172 11.6719 12.8516C11.4375 13.0859 11.3203 13.3854 11.3203 13.75C11.3203 14.1146 11.4375 14.4141 11.6719 14.6484ZM2.53125 14.6484C2.79167 14.8828 3.09115 15 3.42969 15C3.76823 15 4.05469 14.8828 4.28906 14.6484C4.54948 14.4141 4.67969 14.1146 4.67969 13.75C4.67969 13.3854 4.54948 13.0859 4.28906 12.8516C4.05469 12.6172 3.76823 12.5 3.42969 12.5C3.09115 12.5 2.79167 12.6172 2.53125 12.8516C2.29688 13.0859 2.17969 13.3854 2.17969 13.75C2.17969 14.1146 2.29688 14.4141 2.53125 14.6484ZM13.7812 6.67969L15.5 11.6797V18.3203C15.5 18.5547 15.4219 18.763 15.2656 18.9453C15.1094 19.1016 14.9141 19.1797 14.6797 19.1797H13.8203C13.5859 19.1797 13.3906 19.1016 13.2344 18.9453C13.0781 18.763 13 18.5547 13 18.3203V17.5H3V18.3203C3 18.5547 2.92188 18.763 2.76562 18.9453C2.60938 19.1016 2.41406 19.1797 2.17969 19.1797H1.32031C1.08594 19.1797 0.890625 19.1016 0.734375 18.9453C0.578125 18.763 0.5 18.5547 0.5 18.3203V11.6797L2.21875 6.67969C2.40104 6.10677 2.80469 5.82031 3.42969 5.82031H12.5703C13.1953 5.82031 13.599 6.10677 13.7812 6.67969ZM4.67969 3.82812C4.44531 4.0625 4.15885 4.17969 3.82031 4.17969C3.48177 4.17969 3.18229 4.0625 2.92188 3.82812C2.6875 3.56771 2.57031 3.26823 2.57031 2.92969C2.57031 2.69531 2.67448 2.39583 2.88281 2.03125C3.09115 1.64062 3.29948 1.3151 3.50781 1.05469L3.82031 0.664062C4.65365 1.6276 5.07031 2.38281 5.07031 2.92969C5.07031 3.26823 4.9401 3.56771 4.67969 3.82812ZM8.89844 3.82812C8.66406 4.0625 8.36458 4.17969 8 4.17969C7.63542 4.17969 7.33594 4.0625 7.10156 3.82812C6.86719 3.56771 6.75 3.26823 6.75 2.92969C6.75 2.69531 6.85417 2.39583 7.0625 2.03125C7.27083 1.64062 7.47917 1.3151 7.6875 1.05469L8 0.664062C8.83333 1.6276 9.25 2.38281 9.25 2.92969C9.25 3.26823 9.13281 3.56771 8.89844 3.82812ZM13.0391 3.82812C12.8047 4.0625 12.5182 4.17969 12.1797 4.17969C11.8411 4.17969 11.5417 4.0625 11.2812 3.82812C11.0469 3.56771 10.9297 3.26823 10.9297 2.92969C10.9297 2.69531 11.0339 2.39583 11.2422 2.03125C11.4505 1.64062 11.6589 1.3151 11.8672 1.05469L12.1797 0.664062C13.013 1.6276 13.4297 2.38281 13.4297 2.92969C13.4297 3.26823 13.2995 3.56771 13.0391 3.82812Z" fill="#261E3B"/>
</svg>
