<svg width="20" height="20" viewBox="0 0 20 20" fill="none" xmlns="http://www.w3.org/2000/svg">
<path d="M4.46979 2.7349C4.46979 3.19502 4.28701 3.6363 3.96165 3.96165C3.6363 4.28701 3.19502 4.46979 2.7349 4.46979C2.27477 4.46979 1.8335 4.28701 1.50814 3.96165C1.18278 3.6363 1 3.19502 1 2.7349C1 2.27477 1.18278 1.8335 1.50814 1.50814C1.8335 1.18278 2.27477 1 2.7349 1C3.19502 1 3.6363 1.18278 3.96165 1.50814C4.28701 1.8335 4.46979 2.27477 4.46979 2.7349ZM4.46979 16.6141C4.46979 17.0742 4.28701 17.5155 3.96165 17.8408C3.6363 18.1662 3.19502 18.349 2.7349 18.349C2.27477 18.349 1.8335 18.1662 1.50814 17.8408C1.18278 17.5155 1 17.0742 1 16.6141C1 16.154 1.18278 15.7127 1.50814 15.3873C1.8335 15.062 2.27477 14.8792 2.7349 14.8792C3.19502 14.8792 3.6363 15.062 3.96165 15.3873C4.28701 15.7127 4.46979 16.154 4.46979 16.6141ZM11.4094 16.6141C11.4094 17.0742 11.2266 17.5155 10.9012 17.8408C10.5759 18.1662 10.1346 18.349 9.67449 18.349C9.21436 18.349 8.77309 18.1662 8.44773 17.8408C8.12237 17.5155 7.93959 17.0742 7.93959 16.6141C7.93959 16.154 8.12237 15.7127 8.44773 15.3873C8.77309 15.062 9.21436 14.8792 9.67449 14.8792C10.1346 14.8792 10.5759 15.062 10.9012 15.3873C11.2266 15.7127 11.4094 16.154 11.4094 16.6141ZM11.4094 2.7349C11.4094 3.19502 11.2266 3.6363 10.9012 3.96165C10.5759 4.28701 10.1346 4.46979 9.67449 4.46979C9.21436 4.46979 8.77309 4.28701 8.44773 3.96165C8.12237 3.6363 7.93959 3.19502 7.93959 2.7349C7.93959 2.27477 8.12237 1.8335 8.44773 1.50814C8.77309 1.18278 9.21436 1 9.67449 1C10.1346 1 10.5759 1.18278 10.9012 1.50814C11.2266 1.8335 11.4094 2.27477 11.4094 2.7349ZM18.349 2.7349C18.349 3.19502 18.1662 3.6363 17.8408 3.96165C17.5155 4.28701 17.0742 4.46979 16.6141 4.46979C16.154 4.46979 15.7127 4.28701 15.3873 3.96165C15.062 3.6363 14.8792 3.19502 14.8792 2.7349C14.8792 2.27477 15.062 1.8335 15.3873 1.50814C15.7127 1.18278 16.154 1 16.6141 1C17.0742 1 17.5155 1.18278 17.8408 1.50814C18.1662 1.8335 18.349 2.27477 18.349 2.7349Z" stroke="#64748B" stroke-width="1.5"/>
<path d="M2.73438 4.46973V14.8791M9.67396 4.46973V14.8791M16.6136 4.46973V6.20462C16.6136 7.84063 16.6136 8.65777 16.1052 9.16609C15.5969 9.67442 14.7798 9.67442 13.1438 9.67442H2.73438" stroke="#64748B" stroke-width="1.5" stroke-linecap="round"/>
<path d="M14.8811 12.2771V11.6265C14.7085 11.6265 14.543 11.695 14.421 11.817C14.299 11.939 14.2305 12.1045 14.2305 12.2771H14.8811ZM14.2305 18.3492C14.2305 18.5217 14.299 18.6872 14.421 18.8092C14.543 18.9312 14.7085 18.9998 14.8811 18.9998C15.0536 18.9998 15.2191 18.9312 15.3411 18.8092C15.4631 18.6872 15.5316 18.5217 15.5316 18.3492H14.2305ZM17.7957 18.6892C17.8403 18.7621 17.8989 18.8255 17.9681 18.8758C18.0372 18.9261 18.1156 18.9622 18.1987 18.9822C18.2819 19.0022 18.3681 19.0056 18.4526 18.9922C18.537 18.9789 18.618 18.949 18.6909 18.9044C18.7638 18.8597 18.8272 18.8011 18.8775 18.732C18.9277 18.6628 18.9639 18.5844 18.9839 18.5013C19.0038 18.4182 19.0072 18.3319 18.9939 18.2475C18.9805 18.163 18.9507 18.0821 18.906 18.0092L17.7957 18.6892ZM14.8811 12.9276H16.864V11.6265H14.8811V12.9276ZM15.5316 15.3131V12.2771H14.2305V15.3131H15.5316ZM17.7003 13.7951C17.7003 14.2869 17.3134 14.6625 16.864 14.6625V15.9637C18.0568 15.9637 19.0014 14.98 19.0014 13.7951H17.7003ZM16.864 12.9276C17.3134 12.9276 17.7003 13.3032 17.7003 13.7951H19.0014C19.0014 12.6102 18.0568 11.6265 16.864 11.6265V12.9276ZM16.864 14.6625H16.4919V15.9637H16.864V14.6625ZM16.4919 14.6625H14.8811V15.9637H16.4919V14.6625ZM15.9367 15.6532L17.7957 18.6892L18.906 18.0092L17.0471 14.9731L15.9367 15.6532ZM14.2305 15.3131V18.3492H15.5316V15.3131H14.2305Z" fill="#64748B"/>
</svg>
