<svg width="15" height="13" viewBox="0 0 15 13" fill="none" xmlns="http://www.w3.org/2000/svg">
<path d="M9.01172 1.26172V2.73828H0.0117188V1.26172H2.26172L3 0.488281H5.98828L6.76172 1.26172H9.01172ZM0.75 11V3.51172H8.23828V11C8.23828 11.3984 8.08594 11.75 7.78125 12.0547C7.5 12.3594 7.16016 12.5117 6.76172 12.5117H2.26172C1.86328 12.5117 1.51172 12.3594 1.20703 12.0547C0.902344 11.75 0.75 11.3984 0.75 11ZM9.75 6.5H14.25V8.01172H9.75V6.5ZM9.75 3.51172H14.9883V4.98828H9.75V3.51172ZM9.75 9.48828H12.7383V11H9.75V9.48828Z" fill="#64748B"/>
</svg>
