<svg width="18" height="18" viewBox="0 0 18 18" fill="none" xmlns="http://www.w3.org/2000/svg">
<path d="M15.6797 9V2.32031H11.5V9L13.5703 7.75L15.6797 9ZM15.6797 0.679688C16.1224 0.679688 16.5 0.848958 16.8125 1.1875C17.151 1.5 17.3203 1.8776 17.3203 2.32031V12.3203C17.3203 12.763 17.151 13.1536 16.8125 13.4922C16.5 13.8307 16.1224 14 15.6797 14H5.67969C5.23698 14 4.84635 13.8307 4.50781 13.4922C4.16927 13.1536 4 12.763 4 12.3203V2.32031C4 1.8776 4.16927 1.5 4.50781 1.1875C4.84635 0.848958 5.23698 0.679688 5.67969 0.679688H15.6797ZM2.32031 4V15.6797H14V17.3203H2.32031C1.8776 17.3203 1.48698 17.1641 1.14844 16.8516C0.835938 16.513 0.679688 16.1224 0.679688 15.6797V4H2.32031Z" fill="#261E3B"/>
</svg>
