<svg width="20" height="20" viewBox="0 0 20 20" fill="none" xmlns="http://www.w3.org/2000/svg">
<g id="vuesax/linear/keyboard-open">
<g id="keyboard-open">
<g id="Group">
<path id="Vector" d="M6.04986 1.66602H13.9415C14.4832 1.66602 14.9665 1.6827 15.3999 1.74104C17.7082 1.99937 18.3332 3.08269 18.3332 6.04936V11.316C18.3332 14.2827 17.7082 15.366 15.3999 15.6243C14.9665 15.6827 14.4915 15.6994 13.9415 15.6994H6.04986C5.50819 15.6994 5.02486 15.6827 4.59153 15.6243C2.28319 15.366 1.6582 14.2827 1.6582 11.316V6.04936C1.6582 3.08269 2.28319 1.99937 4.59153 1.74104C5.02486 1.6827 5.50819 1.66602 6.04986 1.66602Z" stroke="#64748B" stroke-width="1.5" stroke-linecap="round" stroke-linejoin="round"/>
<path id="Vector_2" d="M11.3164 6.93359H14.3831" stroke="#64748B" stroke-width="1.5" stroke-linecap="round" stroke-linejoin="round"/>
<path id="Vector_3" d="M5.61621 11.7578H5.63287H14.3912" stroke="#64748B" stroke-width="1.5" stroke-linecap="round" stroke-linejoin="round"/>
</g>
<path id="Vector_4" d="M5.83301 18.334H14.1663" stroke="#64748B" stroke-width="1.5" stroke-linecap="round" stroke-linejoin="round"/>
<path id="Vector_5" d="M5.99607 6.91667H6.00356" stroke="#64748B" stroke-width="2" stroke-linecap="round" stroke-linejoin="round"/>
<path id="Vector_6" d="M8.7451 6.91667H8.75258" stroke="#64748B" stroke-width="2" stroke-linecap="round" stroke-linejoin="round"/>
</g>
</g>
</svg>
